<?xml version="1.0" encoding="UTF-8" standalone="no"?>
<!-- Created with Inkscape (http://www.inkscape.org/) -->

<svg
   width="21.734819mm"
   height="13.229167mm"
   viewBox="0 0 21.734819 13.229167"
   version="1.1"
   id="svg5"
   inkscape:version="1.1.1 (3bf5ae0d25, 2021-09-20)"
   sodipodi:docname="arrow_white.svg"
   xmlns:inkscape="http://www.inkscape.org/namespaces/inkscape"
   xmlns:sodipodi="http://sodipodi.sourceforge.net/DTD/sodipodi-0.dtd"
   xmlns="http://www.w3.org/2000/svg"
   xmlns:svg="http://www.w3.org/2000/svg">
  <sodipodi:namedview
     id="namedview7"
     pagecolor="#ffffff"
     bordercolor="#666666"
     borderopacity="1.0"
     inkscape:pageshadow="2"
     inkscape:pageopacity="0.0"
     inkscape:pagecheckerboard="0"
     inkscape:document-units="mm"
     showgrid="false"
     fit-margin-top="0"
     fit-margin-left="0"
     fit-margin-right="0"
     fit-margin-bottom="0"
     inkscape:zoom="0.72337262"
     inkscape:cx="413.34161"
     inkscape:cy="102.9898"
     inkscape:window-width="1920"
     inkscape:window-height="1001"
     inkscape:window-x="2391"
     inkscape:window-y="457"
     inkscape:window-maximized="1"
     inkscape:current-layer="layer1" />
  <defs
     id="defs2" />
  <g
     inkscape:label="Capa 1"
     inkscape:groupmode="layer"
     id="layer1"
     transform="translate(4.2528315,-4.2527958)">
    <g
       transform="matrix(0,1.4501481,-1.4501481,0,581.5983,-1117.984)"
       id="g1125"
       style="fill:#ffffff">
      <path
         d="m 776.038,389.006 c -1.595,0 -3.032,2.058 -1.522,3.618 l 3.584,3.944 -3.584,3.943 c -1.298,1.548 0.061,3.483 1.613,3.483 0.485,0 0.995,-0.191 1.443,-0.645 l 4.858,-5.363 c 0.352,-0.356 0.521,-0.841 0.57,-1.332 0,-0.043 0,-0.043 0,-0.086 0,-0.043 0,-0.043 0,-0.086 -0.049,-0.492 -0.218,-0.977 -0.57,-1.333 l -4.858,-5.357 c -0.454,-0.559 -1.006,-0.786 -1.534,-0.786 z"
         fill="#869fb2"
         fill-rule="evenodd"
         id="path1123"
         style="fill:#ffffff" />
    </g>
  </g>
</svg>
