<?xml version="1.0" encoding="UTF-8" standalone="no"?>
<!-- Created with Inkscape (http://www.inkscape.org/) -->

<svg
   width="26.458334mm"
   height="18.314905mm"
   viewBox="0 0 26.458334 18.314905"
   version="1.1"
   id="svg1"
   xml:space="preserve"
   inkscape:version="1.4.2 (f4327f4, 2025-05-13)"
   sodipodi:docname="clean.svg"
   xmlns:inkscape="http://www.inkscape.org/namespaces/inkscape"
   xmlns:sodipodi="http://sodipodi.sourceforge.net/DTD/sodipodi-0.dtd"
   xmlns="http://www.w3.org/2000/svg"
   xmlns:svg="http://www.w3.org/2000/svg"
   xmlns:rdf="http://www.w3.org/1999/02/22-rdf-syntax-ns#"
   xmlns:cc="http://creativecommons.org/ns#"
   xmlns:dc="http://purl.org/dc/elements/1.1/"><defs
     id="defs1" /><sodipodi:namedview
     id="base"
     pagecolor="#ffffff"
     bordercolor="#fff"
     borderopacity="0.3"
     inkscape:pageopacity="0.0"
     inkscape:pageshadow="2"
     inkscape:zoom="1.4"
     inkscape:cx="-47.142857"
     inkscape:cy="151.07143"
     inkscape:document-units="mm"
     inkscape:showpageshadow="0"
     inkscape:pagecheckerboard="true"
     inkscape:deskcolor="#505050"
     inkscape:clip-to-page="false"
     inkscape:window-width="2400"
     inkscape:window-height="1261"
     inkscape:window-x="-9"
     inkscape:window-y="441"
     inkscape:window-maximized="1"
     inkscape:current-layer="svg1" /><metadata
     id="metadata1"><rdf:RDF><cc:Work
         rdf:about=""><dc:format>image/svg+xml</dc:format><dc:type
           rdf:resource="http://purl.org/dc/dcmitype/StillImage" /></cc:Work></rdf:RDF></metadata><path
     fill="#fff"
     fill-opacity="1"
     stroke-width="0.130821"
     stroke-linejoin="round"
     d="m 0.95790229,11.470038 c -1.27720305,-1.277203 -1.27720305,-3.347964 0,-4.625169 L 6.8120653,0.990902 C 7.5340003,0.269034 8.1434283,0 9.4516355,0 H 23.187813 c 1.806242,0 3.270519,1.464278 3.270519,3.27052 v 11.773867 c 0,1.806242 -1.464277,3.270519 -3.270519,3.270519 H 9.4516355 c -1.3082072,0 -1.9176352,-0.268836 -2.6395702,-0.990704 z M 20.262727,12.395071 17.025109,9.157388 20.262727,5.91977 18.576186,4.233163 15.338568,7.470847 12.100887,4.233163 10.414345,5.91977 l 3.237616,3.237618 -3.237616,3.237683 1.686542,1.686541 3.237681,-3.237683 3.237618,3.237683 z"
     id="path2" /></svg>
