<?xml version="1.0" encoding="UTF-8" standalone="no"?>
<!-- Created with Inkscape (http://www.inkscape.org/) -->

<svg
   width="13.229167mm"
   height="13.229167mm"
   viewBox="0 0 13.229167 13.229167"
   version="1.1"
   id="svg5"
   inkscape:version="1.1.1 (3bf5ae0d25, 2021-09-20)"
   sodipodi:docname="delete_white.svg"
   xmlns:inkscape="http://www.inkscape.org/namespaces/inkscape"
   xmlns:sodipodi="http://sodipodi.sourceforge.net/DTD/sodipodi-0.dtd"
   xmlns="http://www.w3.org/2000/svg"
   xmlns:svg="http://www.w3.org/2000/svg">
  <sodipodi:namedview
     id="namedview7"
     pagecolor="#ffffff"
     bordercolor="#666666"
     borderopacity="1.0"
     inkscape:pageshadow="2"
     inkscape:pageopacity="0.0"
     inkscape:pagecheckerboard="0"
     inkscape:document-units="mm"
     showgrid="false"
     fit-margin-top="0"
     fit-margin-left="0"
     fit-margin-right="0"
     fit-margin-bottom="0"
     inkscape:zoom="0.72337262"
     inkscape:cx="396.75265"
     inkscape:cy="119.57876"
     inkscape:window-width="1920"
     inkscape:window-height="1001"
     inkscape:window-x="2391"
     inkscape:window-y="457"
     inkscape:window-maximized="1"
     inkscape:current-layer="layer1" />
  <defs
     id="defs2" />
  <g
     inkscape:label="Capa 1"
     inkscape:groupmode="layer"
     id="layer1"
     transform="translate(3.88e-5)">
    <g
       transform="matrix(0.60132576,0,0,0.55123825,-147.32485,-124.58039)"
       id="g968"
       style="fill:#ffffff">
      <path
         d="m 251.769,236.365 c 0.387,0 0.703,0.304 0.703,0.683 v 8.181 c 0,0.374 -0.316,0.68 -0.703,0.68 -0.391,0 -0.708,-0.306 -0.708,-0.68 v -8.181 c 0,-0.379 0.317,-0.683 0.708,-0.683 z m 4.234,0 c 0.387,0 0.703,0.304 0.703,0.683 v 8.181 c 0,0.374 -0.316,0.68 -0.703,0.68 -0.392,0 -0.708,-0.306 -0.708,-0.68 v -8.181 c 0,-0.379 0.316,-0.683 0.708,-0.683 z m 4.233,0 c 0.388,0 0.704,0.304 0.704,0.683 v 8.181 c 0,0.374 -0.316,0.68 -0.704,0.68 -0.392,0 -0.708,-0.306 -0.708,-0.68 v -8.181 c 0,-0.379 0.316,-0.683 0.708,-0.683 z M 247.001,235 l 1.125,13.138 c 0.094,1.055 1.005,1.862 2.101,1.862 0.002,0 0.005,0 0.007,0 h 11.533 c 0.003,0 0.005,0 0.008,0 1.096,0 2.009,-0.81 2.099,-1.866 L 265,235 Z"
         fill="#5f7d95"
         fill-rule="evenodd"
         id="path964"
         style="fill:#ffffff" />
      <path
         d="m 257.468,227.401 c 0.403,0 0.731,0.313 0.731,0.701 v 0.698 h -4.398 v -0.698 c 0,-0.388 0.328,-0.701 0.735,-0.701 z m -2.932,-1.4 c -1.217,0 -2.203,0.941 -2.203,2.101 v 0.698 h -5.13 c -1.217,0 -2.203,0.941 -2.203,2.101 v 1.401 c 0,0.384 0.329,0.698 0.735,0.698 h 20.532 c 0.404,0 0.733,-0.314 0.733,-0.698 v -1.401 c 0,-1.16 -0.986,-2.101 -2.199,-2.101 h -5.135 v -0.698 c 0,-1.16 -0.985,-2.101 -2.198,-2.101 z"
         fill="#5f7d95"
         fill-rule="evenodd"
         id="path966"
         style="fill:#ffffff" />
    </g>
  </g>
</svg>
