<?xml version="1.0" encoding="UTF-8" standalone="no"?>
<!-- Created with Inkscape (http://www.inkscape.org/) -->

<svg
   width="100mm"
   height="100mm"
   viewBox="0 0 100 100"
   version="1.1"
   id="svg5"
   inkscape:version="1.1.1 (3bf5ae0d25, 2021-09-20)"
   sodipodi:docname="error.svg"
   xmlns:inkscape="http://www.inkscape.org/namespaces/inkscape"
   xmlns:sodipodi="http://sodipodi.sourceforge.net/DTD/sodipodi-0.dtd"
   xmlns="http://www.w3.org/2000/svg"
   xmlns:svg="http://www.w3.org/2000/svg">
  <sodipodi:namedview
     id="namedview7"
     pagecolor="#ffffff"
     bordercolor="#666666"
     borderopacity="1.0"
     inkscape:pageshadow="2"
     inkscape:pageopacity="0.0"
     inkscape:pagecheckerboard="0"
     inkscape:document-units="mm"
     showgrid="false"
     fit-margin-top="0"
     fit-margin-left="0"
     fit-margin-right="0"
     fit-margin-bottom="0"
     inkscape:zoom="0.72337262"
     inkscape:cx="396.75265"
     inkscape:cy="230.17183"
     inkscape:window-width="1920"
     inkscape:window-height="1001"
     inkscape:window-x="-9"
     inkscape:window-y="-9"
     inkscape:window-maximized="1"
     inkscape:current-layer="layer1" />
  <defs
     id="defs2" />
  <g
     inkscape:label="Capa 1"
     inkscape:groupmode="layer"
     id="layer1">
    <g
       transform="matrix(4.1668403,0,0,4.1668403,-3133.4639,-1191.7205)"
       id="g934">
      <path
         d="m 760.751,294.001 c -0.175,0 -0.351,0.068 -0.484,0.203 -0.263,0.272 -0.267,0.707 -0.007,0.979 l 2.285,2.322 c 0.267,0.276 0.267,0.714 0,0.99 l -2.285,2.322 c -0.26,0.272 -0.256,0.707 0.007,0.979 0.133,0.136 0.309,0.204 0.484,0.204 0.173,0 0.346,-0.065 0.479,-0.197 l 0.008,-0.007 2.284,-2.241 c 0.134,-0.129 0.305,-0.195 0.478,-0.195 0.171,0 0.344,0.066 0.478,0.195 l 2.284,2.241 0.008,0.007 c 0.133,0.132 0.306,0.197 0.479,0.197 0.175,0 0.35,-0.068 0.484,-0.204 0.263,-0.272 0.267,-0.707 0.007,-0.979 l -2.285,-2.322 c -0.267,-0.276 -0.267,-0.714 0,-0.99 l 2.285,-2.322 c 0.26,-0.272 0.256,-0.707 -0.007,-0.979 -0.134,-0.135 -0.309,-0.203 -0.484,-0.203 -0.173,0 -0.346,0.064 -0.479,0.196 l -0.008,0.007 -2.284,2.241 c -0.134,0.129 -0.307,0.195 -0.478,0.195 -0.173,0 -0.344,-0.066 -0.478,-0.195 l -2.284,-2.241 -0.008,-0.007 c -0.133,-0.132 -0.306,-0.196 -0.479,-0.196 z"
         fill="#fff"
         fill-rule="evenodd"
         id="path930" />
      <path
         d="m 767.333,292.554 c 0.542,0 1.083,0.207 1.497,0.62 0.82,0.826 0.817,2.161 -0.008,2.981 l -1.841,1.846 1.845,1.844 c 0.824,0.822 0.828,2.157 0.004,2.981 -0.412,0.413 -0.954,0.621 -1.495,0.621 -0.538,0 -1.075,-0.204 -1.486,-0.614 l -1.85,-1.78 -1.848,1.78 c -0.411,0.41 -0.948,0.614 -1.486,0.614 -0.542,0 -1.085,-0.208 -1.498,-0.621 -0.822,-0.824 -0.819,-2.159 0.007,-2.981 l 1.84,-1.844 -1.844,-1.846 c -0.825,-0.82 -0.829,-2.155 -0.003,-2.981 0.41,-0.413 0.951,-0.62 1.493,-0.62 0.538,0 1.075,0.205 1.488,0.616 l 1.848,1.781 1.849,-1.781 c 0.411,-0.411 0.95,-0.616 1.488,-0.616 z m -3.334,-6.553 c -3.164,0 -6.164,1.259 -8.451,3.547 -2.288,2.287 -3.548,5.291 -3.548,8.453 0,3.16 1.26,6.164 3.548,8.451 2.287,2.288 5.287,3.548 8.451,3.548 3.162,0 6.162,-1.26 8.449,-3.548 2.292,-2.287 3.551,-5.291 3.551,-8.451 0,-3.162 -1.259,-6.166 -3.551,-8.453 -2.287,-2.288 -5.287,-3.547 -8.449,-3.547 z"
         fill="#fff"
         fill-rule="evenodd"
         id="path932" />
    </g>
  </g>
</svg>
