<?xml version="1.0" encoding="UTF-8" standalone="no"?>
<!-- Created with Inkscape (http://www.inkscape.org/) -->

<svg
   width="100mm"
   height="84.626457mm"
   viewBox="0 0 100 84.626457"
   version="1.1"
   id="svg5"
   inkscape:version="1.1.1 (3bf5ae0d25, 2021-09-20)"
   sodipodi:docname="truck.svg"
   xmlns:inkscape="http://www.inkscape.org/namespaces/inkscape"
   xmlns:sodipodi="http://sodipodi.sourceforge.net/DTD/sodipodi-0.dtd"
   xmlns="http://www.w3.org/2000/svg"
   xmlns:svg="http://www.w3.org/2000/svg">
  <sodipodi:namedview
     id="namedview7"
     pagecolor="#ffffff"
     bordercolor="#666666"
     borderopacity="1.0"
     inkscape:pageshadow="2"
     inkscape:pageopacity="0.0"
     inkscape:pagecheckerboard="0"
     inkscape:document-units="mm"
     showgrid="false"
     fit-margin-top="0"
     fit-margin-left="0"
     fit-margin-right="0"
     fit-margin-bottom="0"
     inkscape:zoom="0.72337262"
     inkscape:cx="362.19231"
     inkscape:cy="105.75463"
     inkscape:window-width="1586"
     inkscape:window-height="1091"
     inkscape:window-x="5078"
     inkscape:window-y="115"
     inkscape:window-maximized="0"
     inkscape:current-layer="layer1" />
  <defs
     id="defs2" />
  <g
     inkscape:label="Capa 1"
     inkscape:groupmode="layer"
     id="layer1">
    <g
       id="g1430"
       transform="translate(104.46588,59.076198)" />
    <g
       id="g2789"
       transform="translate(23.591749,134.78386)" />
    <g
       id="g4927"
       transform="matrix(1.4806599,0,0,1.4806599,-37.142236,-27.24162)">
      <path
         style="fill:#d0d0d0;fill-opacity:1;stroke-width:0.264583"
         d="m 72.971595,75.061472 c -0.925184,-0.61006 -1.946137,-1.983427 -2.322719,-3.124477 -0.280638,-0.850345 -0.314396,-0.867847 -0.998619,-0.517708 -0.67083,0.343286 -0.868553,0.268904 -3.750868,-1.411081 -1.67349,-0.975408 -3.16851,-2.024412 -3.322265,-2.331119 -0.200917,-0.400778 -0.38699,-0.489678 -0.661458,-0.316021 -0.210048,0.132894 -0.768512,0.243451 -1.241036,0.245678 -1.072402,0.0051 -2.809704,-1.479206 -3.291761,-2.812314 -0.271592,-0.75107 -0.430184,-0.886777 -0.868797,-0.743416 -1.830109,0.598168 -2.242711,0.499859 -3.536757,-0.842692 -1.117065,-1.158933 -1.891056,-2.722274 -1.89634,-3.830307 -0.0011,-0.201398 -1.042757,-0.953865 -2.315104,-1.672148 -1.272347,-0.718283 -3.496263,-2.00969 -4.942036,-2.869793 l -2.628678,-1.563825 -1.271988,0.68698 c -0.699593,0.377841 -1.542878,0.686983 -1.873965,0.686983 -1.006988,0 -2.473617,-1.210641 -3.177282,-2.622711 -0.606637,-1.217364 -0.695959,-1.290516 -1.153076,-0.944351 -1.283737,0.972148 -3.336646,-0.09041 -4.435654,-2.295827 -0.37953,-0.761619 -0.690054,-1.708322 -0.690054,-2.103789 0,-0.609928 -0.260952,-0.86496 -1.719792,-1.680792 l -1.719792,-0.961761 0.0017,-8.784447 0.0017,-8.784447 0.725931,-0.423728 c 5.040547,-2.942174 12.911529,-7.454514 13.188478,-7.560789 0.19579,-0.07513 2.889159,1.328728 5.985265,3.119688 3.096105,1.79096 9.617878,5.564047 14.492826,8.384638 4.874948,2.820591 11.988933,6.931471 15.808855,9.135289 4.431263,2.556518 6.945313,4.157239 6.945313,4.422148 0,0.252724 1.268354,1.147929 3.241146,2.2876 l 3.241145,1.872396 1.119529,2.081379 c 0.807831,1.501886 1.120908,2.394455 1.124479,3.205858 0.0031,0.695455 0.126088,1.124479 0.322451,1.124479 0.246943,0 0.246943,0.07056 0,0.3175 -0.47716,0.47716 -0.406337,1.287481 0.09569,1.094836 0.247745,-0.09507 0.395433,-0.436052 0.36884,-0.851591 -0.07807,-1.219872 0.0028,-1.55902 0.408596,-1.714759 0.316664,-0.121515 0.396875,0.08914 0.396875,1.042334 0,1.050041 -0.09586,1.249174 -0.792078,1.64534 l -0.792075,0.450715 -0.0016,5.583822 -0.0016,5.583823 -6.123797,3.521675 c -5.685209,3.269454 -6.177897,3.501258 -6.879167,3.236558 -0.415626,-0.156816 -0.755542,-0.187714 -0.755542,-0.06866 0,0.356971 -2.29616,1.589791 -2.957531,1.587916 -0.337889,-0.0011 -0.944195,-0.219245 -1.347346,-0.48508 z m 9.485879,-3.680785 c -0.153781,-0.153781 -1.676148,0.672947 -1.89689,1.030113 -0.103963,0.168219 0.303874,0.02883 0.906304,-0.309758 0.602432,-0.338588 1.048197,-0.662745 0.990586,-0.720355 z m 2.756498,-1.388642 c 0,-0.145521 -0.0525,-0.264583 -0.116676,-0.264583 -0.06417,0 -0.190261,0.119062 -0.280199,0.264583 -0.08994,0.145521 -0.03743,0.264584 0.116676,0.264584 0.15411,0 0.280199,-0.119063 0.280199,-0.264584 z M 71.9751,68.157557 l 0.651751,-0.484291 -1.180917,0.05025 c -1.002774,0.04267 -2.771479,0.649523 -1.961441,0.672981 0.152797,0.0044 0.420687,-0.134829 0.595312,-0.309454 0.246944,-0.246943 0.3175,-0.129352 0.3175,0.529167 0,0.786347 0.03299,0.817419 0.463021,0.436152 0.254662,-0.225785 0.756309,-0.628446 1.114774,-0.894807 z m 17.207622,-0.586844 c 0,-0.113659 -0.416718,0.03921 -0.926041,0.339723 -0.509323,0.300508 -0.926042,0.592222 -0.926042,0.648255 0,0.05603 0.416719,-0.09684 0.926042,-0.339722 0.509323,-0.242879 0.926041,-0.534593 0.926041,-0.648256 z M 78.816228,52.328404 c 0.103778,-0.727387 -0.363246,-0.778635 -0.736698,-0.08084 -0.381801,0.713404 -0.344553,0.863412 0.18913,0.761696 0.254661,-0.04854 0.501068,-0.354923 0.547568,-0.68086 z m 2.645834,-1.5875 c 0.103777,-0.727387 -0.363247,-0.778635 -0.736698,-0.08084 -0.381802,0.713404 -0.344554,0.863412 0.189129,0.761696 0.254662,-0.04854 0.501068,-0.354923 0.547569,-0.68086 z m 2.376077,-0.910109 c 0.430472,-0.430471 0.40127,-1.005416 -0.05107,-1.005416 -0.346673,0 -0.689766,0.537183 -0.689766,1.079973 0,0.339381 0.363474,0.302803 0.740833,-0.07456 z m 2.648966,-1.86835 c 0.05384,-0.279548 -0.0747,-0.459983 -0.327692,-0.459983 -0.228949,0 -0.416274,0.04979 -0.416274,0.110651 0,0.06086 -0.0769,0.31106 -0.170897,0.556004 -0.128617,0.335171 -0.04755,0.421595 0.327692,0.349329 0.274222,-0.05281 0.538451,-0.303011 0.587171,-0.556001 z"
         id="path4943" />
      <path
         style="fill:#b9b9b9;fill-opacity:1;stroke-width:0.264583"
         d="m 72.228225,74.254763 c -0.68574,-0.711443 -1.327857,-1.662578 -1.426925,-2.113634 -0.223171,-1.016088 -0.498901,-1.201201 -1.167378,-0.783728 -0.631214,0.394197 -0.916821,0.27859 -4.452483,-1.802257 -1.410018,-0.829839 -2.582156,-1.704147 -2.654247,-1.979821 -0.141251,-0.540147 -0.4723,-0.644211 -0.728845,-0.229111 -0.08994,0.145521 -0.572871,0.264583 -1.073187,0.264583 -1.125133,0 -2.849216,-1.452787 -3.342291,-2.816365 -0.271592,-0.75107 -0.430184,-0.886777 -0.868797,-0.743416 -1.596821,0.521917 -2.169551,0.444823 -3.160755,-0.425463 -1.090448,-0.957426 -1.848956,-2.289376 -2.103138,-3.693139 -0.160645,-0.887201 -0.404619,-1.068099 -5.129001,-3.802999 l -4.960332,-2.871488 -1.256909,0.694145 c -0.6913,0.381778 -1.55416,0.694142 -1.917467,0.694142 -0.868047,0 -2.559212,-1.54346 -3.166313,-2.889769 -0.471361,-1.045292 -0.484095,-1.052282 -1.221866,-0.670766 -0.410048,0.212045 -0.959814,0.384749 -1.221702,0.383791 -1.360577,-0.005 -3.371277,-2.405263 -3.667039,-4.377547 -0.164846,-1.099269 -0.268457,-1.216443 -1.865269,-2.109433 l -1.690727,-0.945507 0.0049,-8.784447 0.0049,-8.784447 6.641789,-3.836458 c 3.652985,-2.110052 6.847037,-3.935736 7.097896,-4.057075 0.341467,-0.165167 2.61103,1.026372 9.029824,4.740732 19.925086,11.530036 25.225444,14.591776 29.66469,17.135731 3.024783,1.733381 4.690189,2.839374 4.696354,3.118835 0.0059,0.269152 1.236051,1.154252 3.250698,2.338961 l 3.241145,1.905947 1.12448,2.093262 c 0.786397,1.463908 1.124479,2.411317 1.124479,3.15114 0,1.249386 0.172302,1.307888 0.972733,0.330279 l 0.595735,-0.727604 0.0095,1.249976 c 0.0086,1.125503 -0.06953,1.290849 -0.784235,1.660441 l -0.79375,0.410464 -0.0035,5.615601 -0.0035,5.615601 -5.968662,3.439584 c -3.282765,1.89177 -6.144427,3.47918 -6.359247,3.527578 -0.214823,0.04839 -0.553815,-0.04748 -0.753319,-0.213051 -0.282885,-0.234772 -0.634005,-0.09397 -1.595057,0.639612 -1.76259,1.345414 -2.551507,1.277898 -4.12337,-0.35288 z m 2.402414,-1.477862 c 0,-0.324464 -0.271738,-0.994495 -0.603859,-1.488958 -1.291352,-1.922561 -3.023918,-0.853284 -1.856436,1.145722 0.932876,1.597303 2.460295,1.810393 2.460295,0.343236 z m 7.077604,-0.665289 c 1.240555,-0.756381 1.061305,-1.208289 -0.198437,-0.500275 -0.582084,0.32715 -1.058334,0.691955 -1.058334,0.810679 0,0.337481 0.326369,0.256873 1.256771,-0.310404 z m 4.564063,-2.693403 c 0,-0.145206 -0.0893,-0.221218 -0.198438,-0.168915 -1.526267,0.731432 -2.182812,1.162925 -2.182812,1.434589 0,0.212794 0.421105,0.09388 1.190625,-0.336209 0.654843,-0.366 1.190625,-0.784259 1.190625,-0.929465 z m -14.287501,-1.255186 0.661459,-0.531577 -1.349412,0.08663 c -0.742178,0.04765 -1.575615,0.229108 -1.852084,0.403251 -0.445577,0.280657 -0.420026,0.299125 0.224933,0.162587 0.671576,-0.142174 0.727604,-0.09027 0.727604,0.674068 0,0.820182 0.0044,0.822883 0.463021,0.282361 0.254662,-0.300159 0.760677,-0.784953 1.124479,-1.07732 z m 17.346669,-0.578861 c 0.210055,-0.339876 -0.0051,-0.29791 -1.065816,0.207928 -0.51426,0.245235 -0.935019,0.598406 -0.935019,0.784829 0,0.235971 0.281599,0.172799 0.926886,-0.207931 0.509788,-0.300781 0.993066,-0.653952 1.073949,-0.784826 z m -28.509096,-2.69168 c 0.06762,-0.816166 -0.06249,-1.13897 -0.726808,-1.803292 -0.445042,-0.445045 -1.017886,-0.769389 -1.272987,-0.720767 -0.972243,0.185306 -0.577744,2.472375 0.564833,3.274555 0.874146,0.613719 1.342218,0.368916 1.434962,-0.750496 z M 55.263355,61.76399 c 0.06324,-0.752887 -0.08488,-1.123682 -0.720812,-1.804445 -1.120804,-1.199824 -1.747965,-1.018698 -1.713836,0.494962 0.0208,0.922438 0.176959,1.291431 0.758087,1.791298 1.002839,0.862607 1.577512,0.697454 1.676561,-0.481815 z m 36.565201,-7.005489 c 0,-0.446717 -0.113141,-0.581432 -0.396875,-0.472554 -0.218281,0.08376 -0.396875,0.433478 -0.396875,0.777142 0,0.446718 0.113141,0.581433 0.396875,0.472554 0.218281,-0.08376 0.396875,-0.433477 0.396875,-0.777142 z M 78.875037,52.773454 c 0.316309,-0.591031 0.173633,-1.302242 -0.261244,-1.302242 -0.392531,0 -1.146588,1.253953 -0.947637,1.575864 0.280125,0.453249 0.894265,0.314243 1.208881,-0.273622 z m -40.670695,-0.28485 c 0.582541,-0.92352 -0.763529,-3.134059 -1.908431,-3.134059 -1.152345,0 -0.767926,2.363447 0.532578,3.274357 0.692864,0.485298 1.00106,0.453871 1.375853,-0.140298 z m 43.294915,-1.136973 c 0.374761,-0.451559 0.277328,-1.247 -0.171027,-1.396275 -0.394076,-0.131204 -1.24686,1.13107 -1.016241,1.50422 0.243134,0.393398 0.814287,0.341471 1.187268,-0.107945 z m 2.540796,-1.588574 c 0.451345,-0.68884 0.328528,-1.202262 -0.287594,-1.202262 -0.468297,0 -1.007967,0.975945 -0.816123,1.475883 0.21454,0.559081 0.624742,0.457388 1.103717,-0.273621 z M 32.772395,48.816272 c 0.112827,-0.967293 -0.986108,-2.484935 -1.874204,-2.5883 -1.221934,-0.142219 -1.306088,1.248677 -0.163438,2.701322 0.747375,0.950132 1.921228,0.885023 2.037642,-0.113022 z M 86.42759,48.430546 c 0.433911,-0.662233 0.357052,-1.457251 -0.14088,-1.457251 -0.420646,0 -1.147221,1.276356 -0.977842,1.717749 0.223708,0.582973 0.627695,0.488903 1.118722,-0.260498 z"
         id="path4941" />
      <path
         style="fill:#a3a3a3;fill-opacity:1;stroke-width:0.264583"
         d="m 73.572305,75.362105 c -1.090692,-0.396875 -2.910416,-2.838026 -2.910416,-3.904311 0,-0.453014 -0.670431,-0.556421 -0.926042,-0.142832 -0.315897,0.511132 -1.023959,0.249161 -4.004427,-1.481577 -2.165495,-1.257488 -3.007032,-1.886873 -3.007032,-2.248958 0,-0.527148 -0.644937,-0.69305 -0.926041,-0.238215 -0.08994,0.145521 -0.576347,0.264583 -1.080911,0.264583 -0.732644,0 -1.153932,-0.236543 -2.091989,-1.174599 -0.64603,-0.64603 -1.253593,-1.489332 -1.350139,-1.874001 -0.142537,-0.567913 -0.281035,-0.665226 -0.736666,-0.517607 -1.558902,0.505065 -2.139173,0.429209 -3.146336,-0.4113 -1.158441,-0.966754 -1.741484,-1.982788 -1.997122,-3.480263 -0.18119,-1.061369 -0.208876,-1.082919 -4.94369,-3.848106 -2.618815,-1.529421 -4.959645,-2.837177 -5.201845,-2.906127 -0.242201,-0.06895 -0.894918,0.183512 -1.450482,0.561027 -0.555564,0.377516 -1.339323,0.686393 -1.741686,0.686393 -0.942027,0 -2.602671,-1.48236 -3.237324,-2.889769 L 34.343832,50.700142 33.56584,51.10246 c -1.146446,0.592849 -2.14994,0.254079 -3.377133,-1.140085 -0.97711,-1.110056 -1.590456,-2.479566 -1.594094,-3.559373 -8.73e-4,-0.258712 -0.70544,-0.849802 -1.721267,-1.444035 l -1.719792,-1.006036 v -8.385349 -8.38535 l 4.696354,2.707008 c 2.582995,1.488855 5.88698,3.398756 7.342188,4.244225 1.455208,0.845469 6.455834,3.739952 11.1125,6.432186 4.656667,2.692233 10.996745,6.357686 14.089063,8.145454 3.092318,1.787766 5.619213,3.110384 5.615324,2.939151 -0.0039,-0.171236 -2.117252,-1.521648 -4.696354,-3.000923 C 60.733523,47.170061 54.218034,43.412657 48.833763,40.299549 43.449492,37.18644 35.97832,32.86727 32.231158,30.701393 c -3.747161,-2.165876 -6.813021,-4.025438 -6.813021,-4.132359 0,-0.106922 0.68461,-0.583539 1.521355,-1.05915 0.836744,-0.475611 3.938009,-2.270286 6.891699,-3.988168 2.95369,-1.717881 5.420585,-3.12342 5.481987,-3.12342 0.0614,0 1.137576,0.605972 2.391495,1.346606 2.443277,1.443134 9.960431,5.793029 28.649971,16.578663 8.27011,4.772639 11.797726,6.944791 11.95645,7.362264 0.202112,0.531598 0.952537,1.021784 5.583282,3.647072 0.747342,0.423685 1.205021,1.037405 2.061475,2.764303 l 1.100862,2.219706 -0.0088,7.316214 c -0.0085,7.125803 -0.02336,7.328265 -0.569431,7.779234 -0.689534,0.569444 -1.031209,0.589579 -1.031209,0.06077 0,-0.335396 -0.180218,-0.310311 -1.084318,0.150924 -0.836795,0.426902 -1.053528,0.67093 -0.949428,1.069009 0.09971,0.381304 -0.08327,0.628618 -0.701617,0.948293 -0.777653,0.402035 -0.810961,0.401662 -0.473387,-0.0053 0.550759,-0.663959 -0.07069,-0.553919 -1.455724,0.257765 -0.742228,0.434975 -1.134973,0.830656 -1.048406,1.056248 0.08412,0.219218 -0.195324,0.53326 -0.71237,0.800566 -0.795999,0.411522 -0.827064,0.411244 -0.482359,-0.0043 0.597871,-0.720746 0.09385,-0.837737 -0.968777,-0.224867 -0.667631,0.385056 -0.979774,0.74894 -0.964348,1.124196 0.03279,0.797695 -1.896261,1.776283 -2.615756,1.326949 -0.416621,-0.260183 -0.605954,-0.224533 -1.073129,0.20206 -1.168477,1.066974 -2.43803,1.517602 -3.345381,1.187439 z m 1.007401,-2.513073 c 0.06745,-0.812009 -0.07716,-1.151284 -0.845814,-1.984375 -0.775417,-0.840423 -1.005266,-0.956956 -1.404276,-0.711962 -0.91512,0.561888 -0.776026,1.942624 0.314206,3.119003 0.974476,1.051476 1.828932,0.864921 1.935884,-0.422666 z M 86.731099,67.94503 c 2.331431,-1.312936 2.727674,-1.635175 2.85111,-2.31861 0.338627,-1.874911 0.787802,-7.540625 0.597818,-7.540625 -0.222758,0 -10.244495,5.744067 -10.605659,6.078749 -0.357386,0.331182 0.333338,5.664298 0.765027,5.906794 0.207163,0.116372 0.376661,0.454652 0.376661,0.751734 0,0.500446 0.121544,0.470567 1.653645,-0.406519 0.909506,-0.520665 2.872135,-1.632852 4.361398,-2.471523 z m -5.040983,0.92587 c -0.07882,-0.329256 -0.222115,-1.50332 -0.318428,-2.609033 L 81.196576,64.251484 84.70847,62.22286 c 2.053751,-1.186336 3.580895,-1.916986 3.678074,-1.759744 0.160819,0.26021 -0.117325,3.779883 -0.390478,4.941189 -0.08849,0.376211 -0.881001,0.997887 -2.318171,1.818458 -1.201044,0.685749 -2.557383,1.47181 -3.014091,1.746803 l -0.830376,0.499983 z M 71.84583,68.37343 c 0.512998,-0.302675 0.932725,-0.598813 0.932725,-0.658082 0,-0.165769 -2.717945,0.07969 -3.241146,0.292711 -0.254661,0.103685 -0.46302,0.299032 -0.46302,0.434102 0,0.141301 0.217315,0.129281 0.511773,-0.02831 0.75933,-0.406381 0.80964,-0.36273 0.827915,0.718296 0.01466,0.866778 0.04725,0.916313 0.257898,0.391896 0.132622,-0.33016 0.660855,-0.847937 1.173855,-1.150615 z m -10.8316,-2.955774 c 0.315362,-1.256509 -0.930338,-3.098527 -2.095442,-3.098527 -0.758121,0 -1.044845,0.791382 -0.657346,1.814332 0.650221,1.716514 2.435278,2.549253 2.752788,1.284195 z m -5.708433,-3.079361 c 0.454718,-0.849646 -0.282123,-2.528964 -1.352513,-3.082483 -1.614363,-0.834821 -2.041837,1.316328 -0.567402,2.855306 0.824942,0.861055 1.535666,0.945153 1.919915,0.227177 z m 27.659217,-1.736492 c 1.018646,-0.610283 3.042708,-1.801921 4.497917,-2.648088 1.455208,-0.846166 2.73508,-1.668621 2.84416,-1.827681 0.17626,-0.257021 0.199474,-2.273572 0.02617,-2.273572 -0.03791,0 -0.674712,0.357187 -1.415124,0.79375 -0.740413,0.436562 -1.388327,0.79375 -1.43981,0.79375 -0.05148,0 -0.909447,0.496139 -1.906587,1.102529 -0.997138,0.606388 -2.467822,1.457995 -3.268187,1.892456 -2.722023,1.477595 -2.910416,1.670685 -2.910416,2.98295 v 1.179404 l 0.859895,-0.442947 c 0.472943,-0.243623 1.693334,-0.942271 2.71198,-1.552551 z M 78.493635,53.38539 c 0.160115,-0.106912 0.428424,-0.455231 0.596241,-0.774043 0.259858,-0.493665 0.21775,-0.640858 -0.283845,-0.992188 -0.871323,-0.610298 -1.493867,-0.51457 -1.688169,0.259588 -0.114781,0.457327 -0.01873,0.837822 0.300551,1.190625 0.514022,0.567989 0.64167,0.605507 1.075222,0.316018 z M 38.34079,52.13267 c 0.180712,-1.587404 -1.576042,-3.521382 -2.501224,-2.753547 -0.479572,0.39801 -0.467031,1.396269 0.02961,2.356662 0.787297,1.522465 2.315543,1.767866 2.471616,0.396885 z m 42.798678,-0.33478 c 0.160116,-0.106912 0.43002,-0.458213 0.599787,-0.780666 0.269594,-0.512067 0.220988,-0.643731 -0.383987,-1.040127 -1.202735,-0.788062 -2.248855,0.446384 -1.282856,1.5138 0.505761,0.558858 0.634415,0.595873 1.067056,0.306993 z m 2.963254,-1.702511 c 0.553144,-0.553144 0.368237,-1.426528 -0.37357,-1.764517 -0.522274,-0.237964 -0.780778,-0.240424 -1.058334,-0.01008 -0.756928,0.628203 -0.273367,2.092098 0.691071,2.092098 0.232833,0 0.566208,-0.142875 0.740833,-0.317501 z M 32.559481,49.489737 c 0.520972,-0.627735 0.09678,-2.125414 -0.820641,-2.897368 -0.912865,-0.768125 -1.061524,-0.803669 -1.505286,-0.359907 -0.912945,0.912945 0.34445,3.606631 1.700624,3.643204 0.164083,0.0044 0.445469,-0.169243 0.625303,-0.385929 z m 53.607071,-0.602263 c 0.465741,-0.310984 0.878726,-1.256043 0.682604,-1.562045 -0.307399,-0.479628 -1.36851,-0.683244 -1.780173,-0.341595 -0.506386,0.420264 -0.486351,1.025519 0.0537,1.622274 0.482309,0.532945 0.613948,0.568428 1.043864,0.281366 z m -5.185913,23.901315 c 0,-0.07276 0.238125,-0.259734 0.529167,-0.415494 0.291041,-0.15576 0.529166,-0.223671 0.529166,-0.15091 0,0.07276 -0.238125,0.259733 -0.529166,0.415493 -0.291042,0.155761 -0.529167,0.223671 -0.529167,0.150911 z M 92.047618,54.580066 c -0.05897,-0.327422 -0.06411,-0.803672 -0.01146,-1.058333 0.171183,-0.827659 0.481132,-0.489172 0.545121,0.595312 0.0659,1.116825 -0.350824,1.478373 -0.533678,0.463021 z"
         id="path4939" />
      <path
         style="fill:#8c8c8c;fill-opacity:1;stroke-width:0.264583"
         d="m 73.440014,75.239532 c -1.39123,-0.769462 -2.778125,-2.721288 -2.778125,-3.909748 0,-0.513631 -0.0356,-0.518451 -0.874504,-0.118407 -0.81738,0.389782 -0.93404,0.382913 -1.785937,-0.105156 -0.501288,-0.287199 -1.8937,-1.079185 -3.094247,-1.759971 -1.79338,-1.016958 -2.182813,-1.352227 -2.182813,-1.879216 0,-0.636987 -0.0062,-0.638464 -0.898122,-0.213143 -1.58703,0.756801 -3.326652,-0.210606 -4.369957,-2.430143 -0.545581,-1.160674 -0.585801,-1.188563 -1.147117,-0.795401 -0.776216,0.543682 -1.479701,0.512109 -2.503903,-0.112379 -1.12236,-0.684336 -2.158904,-2.291463 -2.40403,-3.727357 l -0.19789,-1.159192 -5.110874,-2.960564 -5.110875,-2.960563 -1.139383,0.768959 c -0.626661,0.422928 -1.336388,0.768961 -1.577172,0.768961 -1.175857,0 -2.897055,-1.510506 -3.568605,-3.131772 -0.336244,-0.811766 -0.348759,-0.816298 -1.13349,-0.410496 -0.959017,0.495927 -1.746168,0.332102 -2.844376,-0.591979 -0.959025,-0.806966 -1.738169,-2.218669 -2.002665,-3.628551 -0.163667,-0.872419 -0.388441,-1.107758 -1.874173,-1.962277 L 25.153554,43.950169 V 35.67215 c 0,-4.552912 0.06449,-8.278021 0.143299,-8.278021 0.07882,0 2.847018,1.567845 6.151563,3.484101 8.283772,4.803633 17.409784,10.082377 27.571806,15.948317 4.729427,2.730021 8.688255,5.017987 8.797396,5.084368 0.10914,0.06638 0.198437,-0.04987 0.198437,-0.258331 0,-0.219131 -3.487957,-2.391204 -8.268229,-5.148916 -4.547526,-2.623442 -12.018698,-6.943617 -16.602605,-9.60039 -4.583906,-2.656774 -10.298906,-5.955954 -12.7,-7.331511 -2.401094,-1.375557 -4.514715,-2.641128 -4.696936,-2.812378 -0.259072,-0.243474 0.37552,-0.718821 2.910416,-2.180073 1.782951,-1.027789 4.849072,-2.799266 6.813603,-3.936615 1.964532,-1.137349 3.690938,-2.067712 3.836459,-2.067474 0.145521,2.38e-4 1.871927,0.931584 3.836458,2.069658 1.964532,1.138074 6.965157,4.032332 11.112501,6.431685 4.147343,2.399353 10.933906,6.327242 15.08125,8.728644 4.147344,2.401401 7.77875,4.500783 8.069792,4.665295 3.775538,2.134129 4.913199,2.904517 4.841211,3.278312 -0.08061,0.41856 -1.691127,1.419389 -8.473448,5.265663 -1.997732,1.13292 -3.633899,2.119384 -3.635928,2.192145 -0.0055,0.196199 5.831414,3.528017 6.177642,3.526329 0.163224,-7.93e-4 2.929631,-1.508918 6.147568,-3.351387 3.217936,-1.842468 5.956374,-3.349733 6.085417,-3.349477 0.129042,2.57e-4 0.702056,0.897787 1.273368,1.994514 0.890984,1.710399 0.985075,2.043586 0.661458,2.342293 -0.20751,0.191532 -2.818069,1.746821 -5.801246,3.456194 -5.221478,2.991929 -6.321018,3.706915 -6.069669,3.94685 0.0641,0.06119 2.773693,-1.424257 6.021324,-3.300992 3.247628,-1.876732 6.021271,-3.412241 6.163651,-3.412241 0.150829,0 0.226219,0.741087 0.180637,1.775658 l -0.07824,1.775656 -4.233333,2.440117 c -2.328334,1.342065 -5.096537,2.945413 -6.151563,3.562999 l -1.918229,1.122878 v 5.25399 c 0,5.250894 -2.65e-4,5.253813 -0.55413,4.957426 -0.450853,-0.241289 -0.660429,-0.19948 -1.124479,0.224325 -0.679882,0.620921 -2.125899,1.379762 -2.607731,1.368488 -0.189127,-0.0044 -0.581994,-0.139747 -0.873035,-0.300717 z m 1.4528,-1.143545 c 0.703916,-0.848167 -0.272634,-3.418859 -1.59563,-4.200372 -1.021501,-0.603414 -1.538986,-0.54098 -1.889332,0.227941 -0.902377,1.980504 2.201656,5.518722 3.484962,3.972431 z M 71.84583,68.37343 c 0.512998,-0.302675 0.932725,-0.588314 0.932725,-0.634751 0,-0.04644 -0.653489,-0.07856 -1.452194,-0.07139 -1.418545,0.01275 -2.585173,0.492244 -2.181001,0.896417 0.111337,0.111336 0.343321,0.06154 0.515523,-0.11066 0.533659,-0.533659 0.735774,-0.351425 0.753194,0.679098 0.01466,0.866778 0.04725,0.916313 0.257898,0.391896 0.132622,-0.33016 0.660855,-0.847937 1.173855,-1.150615 z M 61.138661,66.418035 c 0.206349,-0.248637 0.281691,-0.837806 0.199914,-1.563333 -0.322249,-2.858987 -3.343968,-4.552601 -3.594227,-2.014495 -0.115557,1.171951 0.368321,2.234602 1.449975,3.184305 1.010835,0.887524 1.459063,0.978244 1.944338,0.393523 z m 16.73242,-2.974663 C 77.394966,63.284667 77.464504,62.831595 78.0627,62.194843 l 0.521647,-0.555268 -0.785362,0.009 c -0.431951,0.005 -0.785755,0.09834 -0.786231,0.207484 -0.01072,2.456505 -0.04062,2.354998 0.593744,2.015498 0.366461,-0.196125 0.467979,-0.360434 0.264583,-0.428234 z M 55.684622,62.958947 c 0.627055,-1.634075 -1.135335,-4.608568 -2.730579,-4.608568 -0.149392,0 -0.463688,0.293129 -0.698437,0.651398 -0.360701,0.5505 -0.377274,0.806644 -0.107005,1.653646 0.644707,2.020462 3.04469,3.583916 3.536021,2.303524 z m 29.508374,-3.550235 5.303481,-3.042708 0.0046,-1.256771 c 0.0051,-1.38543 -0.204332,-1.512149 -1.27749,-0.77315 -0.593376,0.408615 -4.071594,2.423478 -7.75524,4.492456 -2.095706,1.177089 -2.075188,1.152192 -2.075188,2.51795 0,0.704725 0.111686,1.241634 0.24819,1.193125 0.136506,-0.04851 2.634755,-1.457412 5.55167,-3.130902 z M 38.751289,53.169363 c 0.704457,-1.835787 -1.417669,-4.983059 -3.017563,-4.475273 -1.202082,0.381526 -0.527511,3.302698 1.051781,4.554646 0.58546,0.464108 1.775669,0.416052 1.965782,-0.07937 z m -5.713151,-3.073984 c 1.115018,-1.115018 -0.949985,-4.709584 -2.705558,-4.709584 -0.235329,0 -0.563332,0.297305 -0.728895,0.660678 -0.879163,1.929551 2.073219,5.410139 3.434453,4.048906 z m 12.488333,-4.949026 c 0,-0.639294 -0.211443,-0.889984 -1.256771,-1.490033 -0.691224,-0.396785 -1.643724,-0.95359 -2.116666,-1.237345 l -0.859896,-0.515922 v 0.788728 c 0,0.70493 0.21786,0.915295 2.050521,1.979973 1.127786,0.655182 2.080286,1.202933 2.116666,1.217226 0.03638,0.01429 0.06615,-0.319892 0.06615,-0.742627 z m 33.602085,28.162292 c 0,-0.338632 0.748477,-0.93535 1.173231,-0.93535 0.374028,0 0.09669,0.803495 -0.362088,1.049025 -0.681066,0.364496 -0.811143,0.346266 -0.811143,-0.113675 z m 0.579339,-2.171668 c 0.117954,-1.395781 0.743577,-1.487192 0.743577,-0.108646 0,0.802526 -0.106177,1.080381 -0.412848,1.080381 -0.314039,0 -0.393192,-0.232566 -0.330729,-0.971735 z m 3.918577,-0.819246 c 0,-0.1178 0.664578,-0.595897 1.476841,-1.062437 0.812263,-0.466537 1.43627,-0.72654 1.386684,-0.577783 -0.116515,0.349543 -2.863525,1.923026 -2.863525,1.64022 z m -1.850313,-1.954075 c 0.0013,-0.491259 0.373544,-0.826534 1.785938,-1.60901 0.981292,-0.543642 2.419598,-1.36312 3.196235,-1.821058 1.411502,-0.832284 1.412031,-0.832369 1.322917,-0.207296 -0.08893,0.623779 -0.955416,1.239358 -4.785506,3.399787 l -1.521354,0.858147 0.0019,-0.62057 z m 7.671147,-0.870151 c 0,-0.368186 0.959802,-1.205626 1.381789,-1.205626 0.456869,0 0.164457,0.759923 -0.446439,1.160195 -0.8015,0.525163 -0.93535,0.531664 -0.93535,0.04543 z M 81.55755,66.755257 c 0.06298,-0.440179 0.860859,-1.044816 3.127256,-2.369836 3.326251,-1.94465 3.802602,-2.113902 3.477717,-1.235657 -0.127142,0.343702 -1.436417,1.279073 -3.333123,2.38125 -1.718048,0.998358 -3.176076,1.815198 -3.240061,1.815198 -0.06399,0 -0.07829,-0.26593 -0.03179,-0.590955 z m -0.215186,-1.389613 c -0.09207,-0.23994 -0.0623,-0.536551 0.06616,-0.65914 0.292489,-0.279115 6.654504,-3.974875 6.842491,-3.974875 0.07587,0 0.137953,0.231179 0.137953,0.513733 0,0.370605 -0.718711,0.932826 -2.579687,2.018001 -1.418828,0.827349 -2.966649,1.736979 -3.439602,2.021401 -0.782489,0.470569 -0.874988,0.47785 -1.027319,0.08088 z m 8.948865,-0.578667 c 0.117954,-1.395781 0.743577,-1.487191 0.743577,-0.108646 0,0.802526 -0.106177,1.080381 -0.412848,1.080381 -0.314039,0 -0.393192,-0.232566 -0.330729,-0.971735 z M 76.813451,53.132732 c -0.375631,-0.134155 -0.455483,-0.86777 -0.09445,-0.86777 0.222699,0 0.653147,0.802569 0.497557,0.927687 -0.03981,0.03201 -0.221203,0.0051 -0.403104,-0.05992 z m 2.115275,-1.551213 c -0.429752,-0.460052 -0.41638,-0.549457 0.11253,-0.752419 0.393198,-0.150884 0.865942,0.215641 0.876999,0.67995 0.0085,0.358664 -0.675394,0.408752 -0.989529,0.07247 z m 2.610686,-1.604264 c -0.313303,-0.353187 -0.313303,-0.448198 0,-0.646607 0.53584,-0.339336 0.764144,-0.292671 0.764144,0.156189 0,0.218281 0.0089,0.483195 0.01984,0.588698 0.03821,0.369406 -0.420079,0.311954 -0.783987,-0.09828 z m 2.497384,-1.506198 c -0.466508,-0.341122 -0.466717,-0.361172 -0.0056,-0.538128 0.283531,-0.108802 0.566944,-0.04519 0.694529,0.155884 0.487206,0.767837 0.118295,0.972516 -0.688951,0.382244 z"
         id="path4937" />
      <path
         style="fill:#767676;fill-opacity:1;stroke-width:0.264583"
         d="m 73.103813,75.018702 c -1.386914,-0.845605 -2.441924,-2.748436 -2.441924,-4.404288 0,-1.342946 0.03944,-1.417831 1.148593,-2.18095 1.092229,-0.751472 1.186357,-0.77071 1.918229,-0.392009 1.706452,0.882994 3.12628,2.859995 3.43335,4.780682 0.176088,1.101421 0.167323,1.116759 -1.096465,1.918229 -1.49851,0.950325 -1.811393,0.979728 -2.961783,0.278336 z m 1.544219,-0.538048 c 1.043398,-0.558411 0.294953,-3.604602 -1.131056,-4.603417 -0.705223,-0.493956 -1.569636,-0.535643 -2.008421,-0.09686 -0.83993,0.83993 0.143939,3.55963 1.611403,4.45439 0.998204,0.608636 0.884462,0.590335 1.528074,0.245885 z m 4.480524,-1.172009 c 0,-0.338632 0.748477,-0.93535 1.173231,-0.93535 0.327427,0 0.122751,0.623568 -0.313336,0.954604 -0.607705,0.461314 -0.859895,0.455668 -0.859895,-0.01926 z m 0.577675,-2.143742 c 0.04608,-0.549814 0.240549,-1.051197 0.432149,-1.114186 0.255873,-0.08412 0.32612,0.150886 0.264584,0.885137 -0.04608,0.549814 -0.240549,1.051197 -0.43215,1.114186 -0.255873,0.08412 -0.32612,-0.150886 -0.264583,-0.885137 z M 66.162667,69.967529 c -3.317467,-1.925873 -3.438279,-2.018967 -3.438279,-2.649434 0,-0.467654 -0.04529,-0.47089 -0.898122,-0.0642 -1.578277,0.752628 -3.341005,-0.213739 -4.265584,-2.338488 -0.273092,-0.627587 -0.524423,-1.182431 -0.558512,-1.23299 -0.03409,-0.05056 -0.412247,0.114982 -0.840351,0.367868 -0.935106,0.552382 -1.807056,0.391055 -2.912126,-0.5388 -0.9086,-0.764537 -1.897152,-2.711185 -1.914064,-3.769156 -0.01069,-0.668412 -0.450488,-0.981834 -5.175393,-3.688207 l -5.163715,-2.957719 -0.956829,0.649319 c -1.321898,0.897065 -1.992779,1.014072 -2.956607,0.515658 -0.853339,-0.441278 -2.404531,-2.342127 -2.404531,-2.946538 0,-0.575892 -0.426594,-0.647988 -1.288882,-0.217821 -1.779331,0.887645 -3.846137,-0.942155 -4.631042,-4.099991 -0.270982,-1.090221 -0.446452,-1.282129 -1.949583,-2.132243 l -1.6518,-0.934196 -0.0018,-8.277537 -0.0018,-8.277539 0.595313,0.310413 c 0.605471,0.31571 20.390634,11.736735 29.302605,16.914985 11.313123,6.573427 12.833218,7.406709 12.905459,7.074487 0.04024,-0.185063 0.456962,-0.561419 0.926042,-0.83635 0.46908,-0.274929 2.400686,-1.389534 4.292457,-2.4769 1.891771,-1.087363 3.796771,-2.186908 4.233334,-2.44343 3.13363,-1.841309 4.574371,-2.649587 4.722828,-2.649587 0.09458,0 0.171964,0.166952 0.171964,0.371004 0,0.340439 -2.141924,1.67169 -9.455508,5.876811 -1.489747,0.856567 -2.710138,1.642636 -2.711979,1.746821 -0.0019,0.104185 0.919387,0.721323 2.047174,1.371418 3.676293,2.11914 4.364823,2.563045 4.212204,2.715667 -0.08271,0.08271 -1.017432,-0.349512 -2.077162,-0.96049 l -1.926781,-1.110872 -0.752882,0.842621 c -0.890815,0.996995 -1.257869,0.647026 3.587329,3.420375 l 3.373438,1.930926 v 1.025983 c 0,0.564293 -0.119063,1.025986 -0.264583,1.025986 -0.145521,0 -0.268899,-0.327422 -0.274175,-0.727605 -0.0085,-0.644559 -0.333118,-0.912606 -2.844271,-2.348539 -1.559073,-0.891516 -2.873145,-1.58727 -2.920159,-1.546119 -0.04702,0.04115 0.06537,0.72367 0.249746,1.516705 0.311288,1.338924 0.43075,1.494809 1.672979,2.182985 2.140085,1.185579 2.861418,1.7537 2.581743,2.033375 -0.159594,0.159594 -1.125389,-0.244604 -2.634059,-1.102389 L 71.784534,60.179414 71.47448,58.603439 c -0.17053,-0.866788 -0.363593,-1.575977 -0.42903,-1.575977 -0.06544,0 -0.118978,1.235713 -0.118978,2.746026 v 2.746025 l 0.79375,0.328782 c 0.731843,0.303139 0.79375,0.431665 0.79375,1.647907 0,1.067544 -0.07569,1.288495 -0.396875,1.158526 -0.218281,-0.08833 -0.575469,-0.232868 -0.79375,-0.321199 -0.577842,-0.233828 -0.550217,1.63599 0.02896,1.960115 0.385472,0.215721 0.386276,0.25349 0.0085,0.398466 -0.229547,0.08809 -0.487931,0.04597 -0.574183,-0.09359 -0.09965,-0.161237 -0.334243,-0.158793 -0.643485,0.0067 -0.365768,0.195755 -0.525799,0.158459 -0.644218,-0.150132 -0.170032,-0.443098 -1.255041,-0.424789 -1.386996,0.02339 -0.04284,0.145521 0.226126,0.486349 0.597712,0.757399 0.49599,0.361794 0.753872,0.414549 0.969984,0.198437 0.544959,-0.544951 0.717716,-0.30099 0.717716,1.01354 0,1.051623 -0.115228,1.38862 -0.588039,1.719791 -0.323419,0.226531 -0.651428,0.411877 -0.728908,0.411877 -0.07748,0 -1.390439,-0.725408 -2.917691,-1.612016 z m 1.298099,-3.12874 c 0.554411,-0.351018 -1.68289,-1.45102 -2.276067,-1.119063 -0.3629,0.203091 -0.262361,0.335094 0.602578,0.791138 1.208847,0.637376 1.190429,0.633767 1.673489,0.327925 z m -6.425684,-0.224232 c 1.469895,-0.968343 -0.464995,-5.089178 -2.389566,-5.089178 -0.888651,0 -1.322954,1.111514 -0.917609,2.348441 0.435292,1.328322 0.983546,2.107076 1.793242,2.547168 0.788588,0.428619 1.097233,0.468082 1.513933,0.193569 z m 3.469889,-1.567386 c 0.120274,-0.360823 -0.599938,-0.641702 -1.1269,-0.439489 -0.349764,0.134218 -0.340792,0.203652 0.06615,0.511905 0.516334,0.39112 0.915323,0.363881 1.060754,-0.07242 z m -9.062922,-1.764679 c 0.987209,-0.721865 0.364485,-3.241442 -1.082431,-4.379584 -1.246706,-0.98066 -2.483147,-0.51557 -2.483147,0.93404 0,0.884092 1.135116,2.801244 1.954348,3.300796 0.984255,0.600181 0.987938,0.600512 1.61123,0.144748 z M 38.400115,53.578571 c 1.043399,-0.558411 0.294951,-3.604602 -1.131056,-4.603417 -1.843087,-1.290947 -2.993817,0.414764 -1.824909,2.705037 0.622231,1.219152 1.374612,1.904835 2.360653,2.151382 0.04595,0.01148 0.313837,-0.102362 0.595312,-0.253002 z m -5.460251,-3.316883 c 1.458918,-1.458918 -1.290502,-5.758815 -2.998615,-4.689621 -1.113912,0.697254 -0.344199,3.425984 1.270703,4.504809 1.067575,0.713185 1.186788,0.725935 1.727912,0.184812 z m 12.851191,-5.09329 c 0,-0.652314 -0.25622,-0.894485 -2.029507,-1.918229 -2.613372,-1.508739 -2.46841,-1.477103 -2.46841,-0.538721 0,0.729663 0.201315,0.927179 2.044989,2.006425 1.124744,0.6584 2.136775,1.197089 2.248958,1.197089 0.112183,0 0.20397,-0.335955 0.20397,-0.746564 z m -6.398572,-3.675621 c -0.06662,-0.571368 -0.461992,-0.945674 -1.935804,-1.832665 -1.018645,-0.613059 -1.94138,-1.123387 -2.05052,-1.134065 -0.109141,-0.01069 -0.197101,0.308004 -0.195467,0.708186 0.0025,0.623356 0.277383,0.886738 1.918229,1.83828 1.053392,0.610873 2.012464,1.116888 2.13127,1.124479 0.118807,0.0076 0.178338,-0.309303 0.132292,-0.704215 z M 33.35431,38.043608 c -0.0011,-0.625867 -0.283952,-0.894085 -2.022579,-1.918229 -2.586628,-1.523662 -2.47401,-1.496081 -2.47401,-0.605904 0,0.667636 0.251831,0.911471 2.050521,1.985417 1.127786,0.67337 2.139818,1.23376 2.248958,1.245315 0.109141,0.01156 0.19784,-0.306417 0.19711,-0.706599 z m 50.275975,32.265493 c 0.0046,-0.220369 2.655943,-1.714244 2.795257,-1.57493 0.0531,0.0531 -0.554972,0.470749 -1.351264,0.928119 -0.796293,0.457366 -1.446091,0.748432 -1.443993,0.646811 z m 6.081604,-3.085873 c 0,-0.213161 0.238125,-0.515006 0.529167,-0.670766 0.444124,-0.237689 0.529166,-0.201213 0.529166,0.226967 0,0.280591 -0.18833,0.582438 -0.418515,0.670767 -0.589944,0.226383 -0.639818,0.20869 -0.639818,-0.226968 z m 0.631055,-1.845212 c -0.204769,-0.533619 0.09466,-1.735971 0.432319,-1.735971 0.342484,0 0.336314,1.773407 -0.0069,1.985531 -0.14655,0.09057 -0.337984,-0.02172 -0.42541,-0.24956 z m -12.12913,-1.453105 c -0.08373,-0.135466 -0.03122,-0.321087 0.116676,-0.41249 0.147894,-0.0914 0.268899,0.01942 0.268899,0.2463 0,0.464749 -0.158766,0.533178 -0.385575,0.16619 z m -0.547608,-0.823587 c -0.08601,-0.139165 -0.03029,-0.253029 0.123817,-0.253029 0.154109,0 0.280199,-0.171566 0.280199,-0.381259 0,-0.209693 0.119063,-0.454845 0.264584,-0.544782 0.148912,-0.09203 0.264583,0.120107 0.264583,0.485243 0,0.664128 -0.651957,1.14886 -0.933183,0.693827 z m 1.251823,-1.4962 0.07823,-1.772335 2.38125,-1.39141 c 5.103934,-2.982322 9.34438,-5.382667 9.509019,-5.382667 0.09485,0 0.137245,0.782574 0.09422,1.739056 l -0.07824,1.739053 -5.913221,3.420322 c -3.252271,1.881174 -5.966383,3.420319 -6.031359,3.420319 -0.06498,0 -0.08293,-0.797552 -0.0399,-1.772338 z m 5.267452,-1.579547 c 2.675724,-1.552493 5.191618,-3.011008 5.590882,-3.241145 0.64693,-0.372891 0.726112,-0.57081 0.727604,-1.818643 l 0.0016,-1.400217 -1.124479,0.652901 c -0.618463,0.359095 -3.148541,1.824988 -5.622396,3.257537 l -4.497916,2.604638 -0.07997,1.383824 c -0.04399,0.761103 -0.03056,1.383823 0.02984,1.383823 0.0604,0 2.299044,-1.270222 4.974765,-2.822718 z m -7.702759,-7.496032 c 0,-0.14552 0.119063,-0.264583 0.264583,-0.264583 0.145521,0 0.264584,0.119063 0.264584,0.264583 0,0.145521 -0.119063,0.264584 -0.264584,0.264584 -0.14552,0 -0.264583,-0.119063 -0.264583,-0.264584 z m 2.436352,-0.972658 c -0.262445,-0.105304 -0.27028,-0.223277 -0.03375,-0.508281 0.437927,-0.527669 0.772395,-0.459242 0.772395,0.158023 0,0.536948 -0.125293,0.59636 -0.738648,0.350258 z m 2.655229,-1.58437 c -0.416872,-0.168066 -0.163523,-0.617972 0.347993,-0.617972 0.209693,0 0.38126,0.178594 0.38126,0.396875 0,0.407983 -0.151657,0.453962 -0.729253,0.221097 z m 2.634634,-1.479257 c -0.246616,-0.297539 -0.260316,-0.465978 -0.04854,-0.596862 0.391694,-0.242081 0.591912,-0.01238 0.481655,0.5526 -0.08067,0.413343 -0.123566,0.417727 -0.433112,0.04426 z"
         id="path4935" />
      <path
         style="fill:#606060;fill-opacity:1;stroke-width:0.264583"
         d="m 73.314466,75.084864 c -1.437402,-0.723334 -2.464728,-2.410314 -2.599102,-4.268009 -0.112657,-1.557457 -0.111655,-1.559949 0.904332,-2.250329 0.559411,-0.380132 1.210837,-0.691147 1.44761,-0.691147 0.236775,0 0.973071,0.477591 1.636215,1.061312 1.23553,1.087559 2.13051,2.637941 2.405713,4.167436 0.144508,0.803146 0.06838,0.917713 -1.095502,1.648619 -1.474208,0.925793 -1.510614,0.930272 -2.699266,0.332118 z m 1.527839,-0.647819 c 0.439611,-0.43961 0.397709,-2.199505 -0.07409,-3.11186 -0.810845,-1.568003 -3.011961,-2.498164 -3.416562,-1.443791 -0.511694,1.333447 0.07222,3.031204 1.437698,4.180176 0.893911,0.752178 1.555287,0.873141 2.052952,0.375475 z m 4.286251,-1.064755 c 0,-0.188396 0.238125,-0.491251 0.529166,-0.67301 0.439256,-0.27432 0.529167,-0.264236 0.529167,0.05934 0,0.214395 -0.238125,0.51725 -0.529167,0.67301 -0.402508,0.215416 -0.529166,0.201213 -0.529166,-0.05934 z m 0.698362,-1.447159 c -0.312579,-0.312582 -0.172921,-1.336032 0.227679,-1.668502 0.340151,-0.2823 0.396875,-0.19462 0.396875,0.613447 0,0.91835 -0.28307,1.396539 -0.624554,1.055055 z M 69.074389,70.177254 c 0,-1.056011 0.342302,-1.772709 0.846666,-1.772709 0.116417,0 0.211667,0.582576 0.211667,1.294609 0,0.93644 -0.115787,1.33904 -0.418515,1.455208 -0.636487,0.244245 -0.639818,0.23916 -0.639818,-0.977108 z m -1.940277,0.432151 c -0.09701,-0.09701 -0.17639,-0.887558 -0.17639,-1.756767 0,-1.184825 0.113085,-1.66307 0.451816,-1.910757 0.408215,-0.298495 0.363534,-0.384728 -0.463021,-0.893651 -0.503161,-0.309801 -1.152962,-0.531445 -1.444003,-0.492543 -0.460293,0.06153 -0.539311,0.301508 -0.607108,1.843841 -0.06257,1.423419 -0.153887,1.743964 -0.463021,1.625338 -0.557644,-0.213987 -0.547214,-3.485129 0.0118,-3.69964 0.56419,-0.2165 0.491951,-0.496588 -0.21064,-0.81671 -0.876755,-0.399479 -1.509151,0.146886 -1.509151,1.303845 0,0.7737 -0.142015,0.997837 -0.886164,1.398588 -0.573381,0.308785 -1.130049,0.416018 -1.577131,0.303808 -0.868061,-0.217869 -2.40365,-1.778421 -2.84738,-2.893663 -0.185298,-0.465717 -0.36482,-0.885302 -0.398944,-0.932413 -0.03412,-0.04711 -0.443113,0.111408 -0.908873,0.352261 -0.966599,0.499848 -1.717651,0.384929 -2.739996,-0.419249 -0.876469,-0.68943 -2.017826,-2.8772 -2.020779,-3.873457 -0.0016,-0.575678 -0.218252,-0.855882 -0.992187,-1.283854 -0.544502,-0.301098 -2.864652,-1.636 -5.155885,-2.966447 l -4.16588,-2.41899 -1.311772,0.81544 c -0.939664,0.584129 -1.497155,0.768916 -1.965291,0.65142 -1.003323,-0.251817 -2.179817,-1.373933 -2.813958,-2.683893 -0.315366,-0.651447 -0.628211,-1.18445 -0.695216,-1.18445 -0.06701,0 -0.479886,0.185158 -0.917513,0.411464 -0.730898,0.377963 -0.875242,0.372576 -1.772798,-0.06615 -1.117159,-0.546063 -2.696906,-2.713331 -2.696906,-3.699907 0,-1.063797 -0.443406,-1.589526 -2.116276,-2.509191 L 25.153554,43.940734 V 35.645853 27.35097 l 0.859896,0.518875 c 0.472943,0.285381 2.407708,1.409467 4.299479,2.497968 1.891771,1.088501 6.416146,3.704674 10.054167,5.813718 18.944966,10.982828 27.395105,15.818848 27.64081,15.818848 0.150003,0 0.272733,-0.163301 0.272733,-0.36289 0,-0.261688 10.040059,-6.285409 13.824479,-8.294256 0.109141,-0.05793 0.198438,0.06451 0.198438,0.272085 0,0.442679 -12.228521,7.591311 -12.985775,7.591311 -0.489119,0 -0.507976,0.282024 -0.507976,7.596833 v 7.59683 l 0.727604,0.617405 0.727605,0.617403 -0.801923,-0.385842 c -1.309183,-0.629909 -1.711619,-0.199663 -1.711619,1.829893 0,1.574302 -0.164806,1.982808 -0.61736,1.530254 z m -5.693723,-4.43357 c 0.464172,-1.018749 0.04725,-2.420924 -1.068615,-3.593943 -1.818158,-1.911282 -3.428341,-1.087128 -2.690101,1.376897 0.685417,2.287722 3.082341,3.701526 3.758716,2.217046 z m -5.946873,-2.738929 c 1.42661,-0.907481 -0.455419,-5.086527 -2.290712,-5.086527 -1.398947,0 -1.737813,1.331179 -0.804548,3.16053 0.837642,1.641911 2.204652,2.492523 3.09526,1.925997 z M 38.835009,53.039911 c 0.948631,-1.985873 -2.146489,-5.589498 -3.574371,-4.161616 -0.435682,0.435682 -0.398838,1.932737 0.06987,2.839122 0.544963,1.053844 1.960411,2.177548 2.623199,2.08252 0.305991,-0.04387 0.702576,-0.385884 0.8813,-0.760026 z m -5.742182,-2.761459 c 0.20635,-0.248637 0.28169,-0.837806 0.199913,-1.563333 -0.347738,-3.085116 -3.905852,-4.892442 -3.905852,-1.98396 0,1.298843 0.510537,2.338039 1.598297,3.253328 0.930579,0.783031 1.621747,0.879432 2.107642,0.293965 z m 12.698228,-5.013277 c 0,-0.851877 -0.125439,-0.987632 -1.835274,-1.98623 -2.644933,-1.544722 -2.663045,-1.548135 -2.660397,-0.501145 0.0021,0.834292 0.134603,0.964031 2.182813,2.13746 1.199311,0.687092 2.210332,1.252638 2.246712,1.256771 0.03638,0.0041 0.06615,-0.403952 0.06615,-0.906856 z m -6.1348,-3.637542 c -0.07403,-0.756997 -0.318979,-0.983584 -2.288171,-2.116667 -1.212894,-0.697907 -2.262235,-1.268921 -2.331868,-1.268921 -0.06963,0 -0.0893,0.386954 -0.0437,0.859896 0.07377,0.765109 0.31623,0.998318 2.199576,2.115635 1.164167,0.690658 2.213507,1.256205 2.331868,1.256771 0.118361,5.29e-4 0.177892,-0.380455 0.132291,-0.846714 z m -6.393619,-4.304649 c -0.122097,-0.318178 -3.840678,-2.520522 -4.255814,-2.520522 -0.100445,0 -0.145319,0.381937 -0.09972,0.848749 0.07375,0.754962 0.316798,0.983335 2.199576,2.066745 2.102873,1.210061 2.117227,1.213869 2.202544,0.58411 0.04723,-0.348639 0.02627,-0.789225 -0.04659,-0.979082 z m 52.67453,31.577896 c 0.179477,-0.180822 0.39297,-0.262115 0.474432,-0.180653 0.08146,0.08146 -0.06538,0.229407 -0.326318,0.328766 -0.377084,0.143585 -0.407475,0.113194 -0.148114,-0.148113 z m 3.774723,-1.658652 c 0,-0.375973 0.762016,-0.809694 1.001615,-0.570095 0.168897,0.168897 -0.462084,0.938662 -0.769427,0.938662 -0.127704,0 -0.232188,-0.165857 -0.232188,-0.368567 z m 0.79375,-2.378329 c 0,-0.509323 0.119063,-0.999625 0.264583,-1.089562 0.157139,-0.09712 0.264584,0.212534 0.264584,0.762521 0,0.509323 -0.119063,0.999625 -0.264584,1.089562 -0.157138,0.09712 -0.264583,-0.212534 -0.264583,-0.762521 z M 78.863972,61.698861 v -1.709243 l 3.373438,-1.973511 c 1.85539,-1.085432 4.266406,-2.486084 5.357812,-3.112559 1.091407,-0.626475 2.252266,-1.311542 2.579688,-1.52237 l 0.595312,-0.383325 -0.0087,1.816367 -0.0087,1.816367 -4.40834,2.513542 c -2.424586,1.382448 -5.099584,2.907389 -5.944441,3.388759 l -1.536113,0.875218 z m 3.12288,-0.347523 c 1.411116,-0.823327 3.905115,-2.26595 5.542225,-3.205824 l 2.976562,-1.708867 v -1.430705 -1.430705 l -0.880761,0.469342 c -0.484417,0.258138 -3.044044,1.719498 -5.688057,3.247466 l -4.8073,2.778125 -5.29e-4,1.389063 c -2.64e-4,0.763984 0.06536,1.389062 0.145833,1.389062 0.08048,0 1.300866,-0.673632 2.711979,-1.496957 z m -3.997243,1.247482 c 0.07828,-0.29935 0.256236,-0.544275 0.395457,-0.544275 0.351258,0 0.15268,0.858671 -0.227878,0.985372 -0.197144,0.06564 -0.25812,-0.09487 -0.167579,-0.441097 z m -3.348715,-1.218759 c -1.085768,-0.634552 -2.068071,-1.407699 -2.182897,-1.718106 -0.376968,-1.019045 -0.935093,-3.693064 -0.768501,-3.681944 0.08966,0.006 1.651299,0.886516 3.470309,1.956737 3.003955,1.767387 3.314896,2.021194 3.390202,2.767245 0.04601,0.455808 -0.04231,0.821386 -0.198437,0.821386 -0.154742,0 -0.281348,-0.332386 -0.281348,-0.738638 0,-0.661723 -0.296166,-0.9081 -2.844271,-2.36611 -1.564349,-0.895112 -2.885093,-1.511819 -2.934988,-1.370457 -0.0499,0.141359 0.05089,0.847341 0.223983,1.568847 0.30203,1.258998 0.393591,1.356714 2.27353,2.426319 1.077357,0.612971 1.958829,1.209863 1.958829,1.32643 0,0.263597 0.213474,0.364101 -2.106411,-0.991709 z m 3.958495,-10.031833 c 0,-0.06764 0.238125,-0.250422 0.529167,-0.406183 0.422354,-0.226036 0.529166,-0.201213 0.529166,0.122984 0,0.229793 -0.229796,0.406183 -0.529166,0.406183 -0.291042,0 -0.529167,-0.05534 -0.529167,-0.122984 z m 2.8575,-1.782016 c 0.246943,-0.246944 0.388056,-0.246944 0.635,0 0.246944,0.246944 0.17639,0.3175 -0.3175,0.3175 -0.49389,0 -0.564444,-0.07056 -0.3175,-0.3175 z m 2.566458,-1.27 c -0.08994,-0.145521 0.02209,-0.264583 0.248968,-0.264583 0.22687,0 0.412491,0.119062 0.412491,0.264583 0,0.145521 -0.112035,0.264583 -0.248968,0.264583 -0.136932,0 -0.322554,-0.119062 -0.412491,-0.264583 z"
         id="path4933" />
      <path
         style="fill:#494949;fill-opacity:1;stroke-width:0.264583"
         d="m 73.008063,74.789174 c -1.347962,-0.854853 -2.346174,-2.603998 -2.346174,-4.111146 0,-1.342012 0.220347,-1.710995 1.372893,-2.298978 1.012881,-0.516734 1.066599,-0.518321 1.857545,-0.05488 0.447974,0.262488 1.171025,0.918368 1.60678,1.457518 0.862195,1.066776 1.810615,3.520009 1.586564,4.10388 -0.110776,0.288679 -2.417467,1.662724 -2.791312,1.662724 -0.04911,0 -0.627941,-0.341603 -1.286296,-0.759121 z M 75.0597,74.081096 c 0.373137,-0.569479 0.393415,-0.833157 0.131345,-1.70787 -0.366535,-1.223383 -1.456058,-2.597009 -2.320587,-2.925704 -2.549384,-0.969274 -2.275041,3.519035 0.304972,4.989364 0.838298,0.47774 1.408692,0.370036 1.88427,-0.35579 z m 4.402733,-1.09674 c 0.246002,-0.245999 0.521563,-0.372983 0.61236,-0.282186 0.260397,0.2604 -0.139354,0.729458 -0.621673,0.729458 -0.403881,0 -0.403156,-0.0348 0.0093,-0.447272 z m 0.459873,-1.78607 c 0,-0.517911 0.119062,-0.941657 0.264583,-0.941657 0.145521,0 0.264583,0.35016 0.264583,0.778134 0,0.427974 -0.119062,0.85172 -0.264583,0.941657 -0.157459,0.09731 -0.264583,-0.217739 -0.264583,-0.778134 z M 67.273285,68.96288 c -0.03915,-1.298369 0.04895,-1.763694 0.37972,-2.005558 0.374753,-0.274026 0.274259,-0.406612 -0.773687,-1.020749 -1.696511,-0.994222 -2.038263,-0.775306 -2.038263,1.305655 0,0.951267 -0.115784,1.691484 -0.264583,1.691484 -0.149043,0 -0.264584,-0.745271 -0.264584,-1.706645 0,-1.312576 0.101053,-1.763196 0.437645,-1.951561 0.38408,-0.214942 0.353867,-0.299813 -0.24684,-0.693412 -1.021218,-0.669126 -1.778305,-0.181343 -1.778305,1.145744 0,0.911616 -0.09657,1.05239 -1.002106,1.460727 -0.750023,0.338214 -1.172864,0.386967 -1.680919,0.193805 -0.705917,-0.268391 -2.605615,-2.301198 -2.612692,-2.795762 -0.01156,-0.808522 -0.444246,-0.999972 -1.281473,-0.567024 -0.477049,0.24669 -1.095364,0.359977 -1.462214,0.267904 -1.395722,-0.350303 -3.314748,-3.00623 -3.333962,-4.614193 -0.0067,-0.562504 -0.452887,-0.916686 -2.982373,-2.367497 -1.635958,-0.938321 -3.958108,-2.291212 -5.160334,-3.006426 -1.557623,-0.926642 -2.280043,-1.223864 -2.513542,-1.034134 -0.976055,0.793086 -2.446458,1.404607 -3.027022,1.258893 -0.857711,-0.215271 -2.356869,-1.80402 -2.763565,-2.928721 -0.373199,-1.03206 -0.483837,-1.071655 -1.510699,-0.540644 -1.638779,0.847444 -4.103568,-1.314553 -4.487906,-3.936585 -0.172511,-1.176898 -0.253096,-1.27113 -1.899943,-2.221695 l -1.719792,-0.992672 -0.07713,-2.187017 -0.07713,-2.187017 1.158709,0.679051 c 1.345634,0.788593 1.509094,0.819158 1.509094,0.282173 0,-0.218281 0.119062,-0.396875 0.264583,-0.396875 0.145521,0 0.264583,0.295248 0.264583,0.656106 0,0.514188 0.300462,0.82801 1.389063,1.450832 l 1.389062,0.794726 0.172064,-0.590936 c 0.16003,-0.549609 0.173908,-0.541579 0.198438,0.114829 0.02098,0.561369 0.310569,0.870236 1.415436,1.509657 l 1.389062,0.803891 0.172064,-0.583615 c 0.158748,-0.538448 0.174105,-0.529251 0.198438,0.118848 0.02021,0.538364 0.300062,0.862854 1.197967,1.389063 1.381544,0.809638 1.658968,0.843698 1.821022,0.223578 0.07682,-0.293952 0.132207,-0.205317 0.151693,0.242745 0.02433,0.559427 0.318708,0.872447 1.419754,1.509656 l 1.389063,0.803892 0.172063,-0.583615 c 0.158801,-0.538629 0.174097,-0.529498 0.198438,0.118451 0.021,0.559096 0.309243,0.862542 1.415436,1.490099 1.37621,0.78074 1.390655,0.782815 1.561126,0.223975 0.154158,-0.505357 0.174809,-0.490993 0.198438,0.138009 0.021,0.559097 0.309243,0.862542 1.415436,1.490099 1.376209,0.780741 1.390655,0.782815 1.561127,0.223975 0.158186,-0.518565 0.174191,-0.50987 0.198437,0.107794 0.02058,0.524182 0.342829,0.853615 1.466136,1.498809 1.419627,0.815393 1.441323,0.818946 1.551466,0.254191 0.09812,-0.503087 0.116091,-0.491033 0.147741,0.09908 0.02788,0.519817 0.361918,0.859034 1.476142,1.499011 1.245,0.715092 1.455923,0.767453 1.556808,0.386482 0.08932,-0.337302 0.123897,-0.314106 0.147389,0.09888 0.02048,0.36013 0.509606,0.814637 1.470803,1.366719 1.245,0.715092 1.455923,0.767453 1.556808,0.386482 0.09162,-0.345993 0.124413,-0.32698 0.152604,0.08849 0.02323,0.34222 0.54278,0.825341 1.47065,1.367515 1.238763,0.723836 1.450702,0.778047 1.551593,0.396875 0.09151,-0.345737 0.123563,-0.326721 0.147812,0.08769 0.0432,0.738407 2.634777,2.210975 2.967289,1.686055 0.175152,-0.276506 0.231905,-0.236895 0.237892,0.166029 0.01069,0.720098 2.611517,2.199351 2.94421,1.674563 0.172061,-0.271409 0.223853,-0.250108 0.22698,0.09336 0.0021,0.24475 0.361239,0.699344 0.797801,1.010203 l 0.79375,0.5652 V 58.66605 c 0,-3.193177 0.06859,-6.148715 0.152419,-6.567865 0.134747,-0.673741 0.920943,-1.206696 6.781514,-4.597136 3.646004,-2.109274 6.792103,-3.873542 6.991332,-3.92059 0.620448,-0.146527 0.393996,0.329729 -0.367041,0.771935 -7.979611,4.636614 -11.966834,6.854235 -12.323733,6.854235 -0.401246,0 -0.440741,0.695391 -0.440741,7.760499 v 7.760499 l -0.649832,0.347779 c -0.561568,0.300542 -0.662456,0.56716 -0.74277,1.962938 l -0.09294,1.61516 z m -5.92473,-2.463335 c 0.520414,-0.520414 0.361924,-2.073746 -0.332489,-3.258674 -1.099854,-1.876756 -2.991837,-2.368603 -3.458265,-0.89902 -0.678141,2.136635 2.417029,5.531419 3.790754,4.157694 z m -5.512641,-3.369273 c 0.956894,-1.787972 -1.362292,-5.328155 -3.179229,-4.853016 -1.206772,0.315579 -0.947949,2.768073 0.45615,4.322241 1.071573,1.186103 2.24948,1.415698 2.723079,0.530775 z M 38.808159,53.389441 c 0.717799,-0.945581 0.187445,-2.849851 -1.131371,-4.062256 -0.940527,-0.864637 -1.387363,-1.019302 -2.138338,-0.740148 -0.490483,0.182321 -0.595138,0.420804 -0.594323,1.354296 0.0022,2.551565 2.710218,4.968068 3.864032,3.448108 z m -5.552625,-3.385428 c 0.377394,-0.575977 0.39489,-0.828225 0.120882,-1.742784 -0.357375,-1.192813 -1.696685,-2.746402 -2.586932,-3.000822 -0.882326,-0.252156 -1.768147,0.745032 -1.564839,1.761572 0.276111,1.380553 1.02129,2.644597 1.860858,3.156564 1.099793,0.670652 1.644975,0.626805 2.170031,-0.17453 z m 56.456355,17.404424 c 0,-0.281313 0.568412,-0.855975 0.846667,-0.855975 0.410676,0 0.205036,0.514096 -0.3175,0.79375 -0.291042,0.15576 -0.529167,0.183761 -0.529167,0.06223 z m 0.79375,-2.692443 c 0,-0.427974 0.119063,-0.85172 0.264583,-0.941657 0.157459,-0.09731 0.264584,0.217739 0.264584,0.778134 0,0.517911 -0.119063,0.941658 -0.264584,0.941658 -0.14552,0 -0.264583,-0.350161 -0.264583,-0.778135 z M 78.863972,61.65767 c 0,-0.994391 0.04955,-1.758376 0.110112,-1.697744 0.194799,0.195035 0.256961,3.138657 0.07022,3.325395 -0.09918,0.09918 -0.180335,-0.633259 -0.180335,-1.627651 z m -2.776252,0.399905 c -0.09269,-0.149982 0.01352,-0.194337 0.248968,-0.103984 0.458369,0.175892 0.542234,0.365538 0.16165,0.365538 -0.136933,0 -0.321712,-0.1177 -0.410618,-0.261554 z m -2.316977,-1.33146 c -0.691224,-0.434065 -1.256771,-0.93081 -1.256771,-1.103876 0,-0.193996 0.126831,-0.158642 0.330729,0.0922 0.181901,0.223774 0.777214,0.67296 1.322917,0.998191 0.545703,0.325229 0.992187,0.641149 0.992187,0.70204 0,0.175451 -0.06261,0.144415 -1.389062,-0.688551 z m 10.120313,-0.372743 c 0,-0.07276 0.238125,-0.259733 0.529166,-0.415493 0.291042,-0.155761 0.529167,-0.223671 0.529167,-0.150911 0,0.07276 -0.238125,0.259734 -0.529167,0.415494 -0.291041,0.15576 -0.529166,0.223671 -0.529166,0.15091 z m -7.027035,-1.091549 c -0.493189,-0.395126 -0.489945,-0.40001 0.08172,-0.122981 0.327422,0.158668 0.595312,0.343829 0.595312,0.41147 0,0.202464 -0.137215,0.143996 -0.677034,-0.288489 z m -4.572857,-0.646861 c 0,-0.363802 0.06006,-0.51263 0.133453,-0.330729 0.0734,0.181901 0.0734,0.479557 0,0.661458 -0.0734,0.181901 -0.133453,0.03307 -0.133453,-0.330729 z m 3.067079,-0.151334 c -0.989129,-0.536612 -0.92892,-0.760111 0.06615,-0.245541 0.436562,0.225756 0.79375,0.466937 0.79375,0.535961 0,0.170259 -0.02843,0.160658 -0.859896,-0.29042 z M 73.689021,57.40974 c -0.493189,-0.395126 -0.489945,-0.40001 0.08172,-0.122981 0.327422,0.158668 0.595312,0.343829 0.595312,0.411469 0,0.202465 -0.137215,0.143997 -0.677034,-0.288488 z m -1.968799,-0.787456 c 0,-0.427934 0.413443,-0.525285 0.644324,-0.151712 0.08051,0.130271 -0.03152,0.305128 -0.248968,0.38857 -0.240151,0.09215 -0.395356,-8.28e-4 -0.395356,-0.236858 z m 18.653125,-1.604462 c 0,-0.93199 0.0893,-1.694527 0.198438,-1.694527 0.109141,0 0.198437,0.707348 0.198437,1.571885 0,0.864536 -0.0893,1.627073 -0.198437,1.694526 -0.109141,0.06745 -0.198438,-0.639895 -0.198438,-1.571884 z m -4.965348,1.183058 c 0.179478,-0.180822 0.39297,-0.262115 0.474433,-0.180652 0.08146,0.08146 -0.06538,0.229407 -0.326319,0.328766 -0.377084,0.143584 -0.407474,0.113194 -0.148114,-0.148114 z m 1.658057,-0.874591 c 0,-0.07276 0.238125,-0.259733 0.529166,-0.415494 0.291042,-0.15576 0.529167,-0.22367 0.529167,-0.15091 0,0.07276 -0.238125,0.259733 -0.529167,0.415494 -0.291041,0.15576 -0.529166,0.22367 -0.529166,0.15091 z m 2.116666,-1.313228 c 0,-0.05719 0.184778,-0.174889 0.410618,-0.261553 0.235458,-0.09035 0.341662,-0.046 0.248968,0.103983 -0.15538,0.25141 -0.659586,0.371859 -0.659586,0.15757 z m -10.31875,-2.806432 c 0,-0.145521 0.185621,-0.264584 0.412491,-0.264584 0.22687,0 0.338905,0.119063 0.248968,0.264584 -0.08994,0.145521 -0.275559,0.264583 -0.412491,0.264583 -0.136933,0 -0.248968,-0.119062 -0.248968,-0.264583 z m 2.778125,-1.5875 c 0.08994,-0.145521 0.216027,-0.264584 0.280199,-0.264584 0.06417,0 0.116676,0.119063 0.116676,0.264584 0,0.145521 -0.12609,0.264583 -0.280199,0.264583 -0.154109,0 -0.206613,-0.119062 -0.116676,-0.264583 z"
         id="path4931" />
      <path
         style="fill:#333333;fill-opacity:1;stroke-width:0.264583"
         d="m 73.043139,74.738929 c 0,-0.154109 0.119062,-0.206613 0.264583,-0.116676 0.145521,0.08994 0.264583,0.216027 0.264583,0.2802 0,0.06417 -0.119062,0.116675 -0.264583,0.116675 -0.145521,0 -0.264583,-0.126089 -0.264583,-0.280199 z m 2.20486,-0.105037 c 0,-0.21188 0.11734,-0.312716 0.260757,-0.22408 0.232209,0.143512 0.163378,-0.891522 -0.153024,-2.3011 -0.264988,-1.180529 -1.889157,-3.039825 -2.386761,-2.732289 -0.149696,0.09252 -0.195072,0.04346 -0.100833,-0.109024 0.09659,-0.156284 -0.145299,-0.357198 -0.554432,-0.460513 L 71.58793,68.623612 72.334174,68.23128 c 0.672574,-0.353602 0.816235,-0.346834 1.455209,0.06855 1.601568,1.041162 2.908784,3.052823 3.144184,4.838559 0.111006,0.842084 0.03241,1.009309 -0.666343,1.417715 -0.960376,0.561324 -1.019225,0.565814 -1.019225,0.07778 z m 4.14514,-1.446844 c 0,-0.125384 0.178594,-0.296503 0.396875,-0.380267 0.218281,-0.08376 0.396875,-0.04971 0.396875,0.07568 0,0.125384 -0.178594,0.296503 -0.396875,0.380267 -0.218281,0.08376 -0.396875,0.04971 -0.396875,-0.07568 z m 0.529167,-2.13667 c 0,-0.436562 0.119062,-0.793749 0.264583,-0.793749 0.145521,0 0.264583,0.357187 0.264583,0.793749 0,0.436563 -0.119062,0.79375 -0.264583,0.79375 -0.145521,0 -0.264583,-0.357187 -0.264583,-0.79375 z M 59.813972,67.081629 c -0.238467,-0.15411 -0.2711,-0.258099 -0.08176,-0.260533 0.173313,-0.0021 0.3887,0.115012 0.478637,0.260533 0.203014,0.328488 0.111421,0.328488 -0.396875,0 z m 1.72213,-0.02283 c 0.365686,-0.51245 0.313563,-2.599304 -0.08921,-3.571687 -0.382828,-0.924232 -2.34183,-2.30491 -3.022346,-2.13011 -0.254863,0.06546 -0.396663,0.01106 -0.315113,-0.120883 0.08155,-0.13195 -0.02461,-0.239908 -0.235911,-0.239908 -0.52206,0 -0.707692,0.586578 -0.557318,1.761072 0.06916,0.540202 0.04533,0.901768 -0.05296,0.803478 -0.09829,-0.09829 -0.343538,-0.04191 -0.544994,0.125281 -0.278284,0.230954 -0.443056,0.221077 -0.685803,-0.04111 -0.211214,-0.228127 -0.21681,-0.287618 -0.01651,-0.175514 0.393618,0.220302 0.733515,-0.653905 0.347094,-0.892726 -0.161624,-0.09989 -0.262255,-0.347533 -0.223623,-0.55032 0.411077,-2.157881 -3.321212,-5.169072 -4.527519,-3.652776 -0.379627,0.477181 -0.598096,0.382973 -5.027083,-2.167774 -2.546615,-1.466646 -4.782198,-2.791942 -4.967963,-2.945098 -0.245435,-0.202354 -0.692146,-0.08558 -1.634324,0.427217 -0.713114,0.388125 -1.36156,0.600528 -1.440991,0.472006 -0.205793,-0.332981 0.09288,-0.560408 0.520486,-0.396322 0.786765,0.301911 -0.004,-3.629424 -0.867778,-4.314338 C 37.934101,49.243026 37.159757,48.79284 36.47347,48.448874 35.392633,47.90716 35.182781,47.87517 34.905086,48.20977 c -0.176325,0.21246 -0.329193,0.784561 -0.339707,1.271336 -0.01177,0.544962 -0.199586,0.998146 -0.488781,1.179383 -0.411407,0.257828 -0.44998,0.215905 -0.310964,-0.337979 0.219091,-0.872932 -0.331341,-2.783859 -1.09129,-3.788614 -0.355979,-0.470651 -1.160592,-1.037947 -1.840364,-1.297556 -1.188517,-0.453898 -1.21413,-0.452308 -1.600547,0.09938 l -0.392701,0.56066 -0.934427,-0.524838 c -0.513935,-0.28866 -1.254253,-0.724694 -1.645151,-0.968962 -0.390898,-0.244272 -0.728556,-0.450398 -0.750352,-0.45806 -0.02179,-0.0077 -0.126535,-0.952191 -0.232755,-2.098948 l -0.193127,-2.085014 1.687963,0.924451 c 0.92838,0.508447 2.402339,1.338845 3.275464,1.845326 10.638258,6.17102 18.223738,10.564998 24.473959,14.176825 4.147344,2.396635 7.897813,4.566266 8.334375,4.821404 3.25373,1.901552 5.056018,2.903582 5.225521,2.905262 0.109141,0.0011 0.198438,-2.908035 0.198438,-6.464707 0,-4.025715 0.09987,-6.528401 0.264583,-6.630199 0.174069,-0.107582 0.264583,2.466697 0.264583,7.525009 0,5.476611 -0.08485,7.688538 -0.294923,7.688538 -0.340146,0 -2.663314,-1.1976 -3.752477,-1.934411 -0.63523,-0.429731 -0.850813,-0.454824 -1.521354,-0.177075 -0.673632,0.279027 -0.781246,0.463677 -0.781246,1.340527 0,0.784212 -0.136231,1.089515 -0.595312,1.334135 -0.500634,0.266758 -0.552861,0.25772 -0.328391,-0.05684 z m 0.575276,-1.349698 c -0.08446,-0.211066 -0.147156,-0.148373 -0.159851,0.159854 -0.01148,0.278913 0.05104,0.435184 0.138965,0.347265 0.08792,-0.08792 0.09732,-0.316124 0.02088,-0.507119 z m 27.978072,1.234554 c 0.280418,-0.212151 0.574627,-0.320953 0.653796,-0.241782 0.166076,0.166077 -0.50591,0.638355 -0.899065,0.63187 -0.145521,-0.0024 -0.03515,-0.17794 0.245269,-0.390088 z m 0.416189,-2.243272 c 0,-0.436563 0.119063,-0.79375 0.264583,-0.79375 0.145521,0 0.264584,0.357187 0.264584,0.79375 0,0.436562 -0.119063,0.79375 -0.264584,0.79375 -0.14552,0 -0.264583,-0.357188 -0.264583,-0.79375 z M 54.451748,63.873796 c 0.179478,-0.180821 0.39297,-0.262114 0.474433,-0.180652 0.08146,0.08146 -0.06538,0.229407 -0.326319,0.328766 -0.377084,0.143584 -0.407474,0.113194 -0.148114,-0.148114 z M 51.76119,61.073769 c -0.143584,-0.377084 -0.113194,-0.407474 0.148114,-0.148114 0.180821,0.179478 0.262114,0.39297 0.180652,0.474433 -0.08146,0.08146 -0.229407,-0.06538 -0.328766,-0.326319 z M 69.36102,50.844967 c 0.09073,-0.07989 4.127579,-2.415053 8.13077,-4.703334 0.482227,-0.275648 1.137071,-0.6599 1.455208,-0.853892 1.881691,-1.147419 3.091974,-1.744679 3.091974,-1.525855 0,0.215482 -0.694325,0.663064 -3.571875,2.302531 -0.291041,0.16582 -2.30392,1.331122 -4.473067,2.589559 -2.169144,1.258438 -4.123754,2.288069 -4.343575,2.288069 -0.219823,0 -0.350067,-0.04369 -0.289435,-0.09708 z M 29.243716,48.278609 c -0.09592,-0.155202 -0.117655,-0.338931 -0.0483,-0.408286 0.06935,-0.06936 0.196603,0.05763 0.282774,0.282186 0.178907,0.466225 0.02642,0.548232 -0.234474,0.1261 z"
         id="path4929" />
    </g>
  </g>
</svg>
