<?xml version="1.0" encoding="UTF-8" standalone="no"?>
<!-- Created with Inkscape (http://www.inkscape.org/) -->

<svg
   width="100mm"
   height="127.86928mm"
   viewBox="0 0 100 127.86928"
   version="1.1"
   id="svg5"
   inkscape:version="1.1.1 (3bf5ae0d25, 2021-09-20)"
   sodipodi:docname="cliente.svg"
   xmlns:inkscape="http://www.inkscape.org/namespaces/inkscape"
   xmlns:sodipodi="http://sodipodi.sourceforge.net/DTD/sodipodi-0.dtd"
   xmlns="http://www.w3.org/2000/svg"
   xmlns:svg="http://www.w3.org/2000/svg">
  <sodipodi:namedview
     id="namedview7"
     pagecolor="#ffffff"
     bordercolor="#666666"
     borderopacity="1.0"
     inkscape:pageshadow="2"
     inkscape:pageopacity="0.0"
     inkscape:pagecheckerboard="0"
     inkscape:document-units="mm"
     showgrid="false"
     fit-margin-top="0"
     fit-margin-left="0"
     fit-margin-right="0"
     fit-margin-bottom="0"
     inkscape:zoom="0.72337262"
     inkscape:cx="396.75265"
     inkscape:cy="230.17183"
     inkscape:window-width="1920"
     inkscape:window-height="1001"
     inkscape:window-x="-9"
     inkscape:window-y="-9"
     inkscape:window-maximized="1"
     inkscape:current-layer="layer1" />
  <defs
     id="defs2" />
  <g
     inkscape:label="Capa 1"
     inkscape:groupmode="layer"
     id="layer1"
     transform="translate(4.5432757e-5)">
    <g
       transform="matrix(5.1149758,0,0,5.1149758,-2947.3712,-1611.2225)"
       id="g1042">
      <path
         d="m 590.412,328 c -0.483,0.465 -1.04,0.846 -1.643,1.12 L 587,331.848 588.122,333 591,328.578 Z"
         fill="#fff"
         fill-rule="evenodd"
         id="path1028" />
      <path
         d="m 590.512,318 c -0.831,1.742 -2.587,2.849 -4.513,2.849 h -4.998 v 2.149 c 0,2.227 1.459,4.051 3.271,4.693 h 0.013 c 0.517,0.206 1.117,0.309 1.715,0.309 0.598,0 1.197,-0.103 1.713,-0.309 h 0.015 c 1.432,-0.428 3.271,-2.276 3.271,-4.693 v -2.863 c 0,-0.74 -0.163,-1.471 -0.487,-2.135 z"
         fill="#fff"
         fill-rule="evenodd"
         id="path1030" />
      <path
         d="m 585.698,315.001 c -0.005,0 -0.01,0 -0.013,0 -2.353,0.005 -4.345,2.132 -4.684,4.999 h 4.684 c 1.602,0 2.987,-1.382 3.315,-3.315 -0.877,-1.08 -2.066,-1.684 -3.302,-1.684 z"
         fill="#fff"
         fill-rule="evenodd"
         id="path1032" />
      <path
         d="m 579.69,329 -1.884,0.584 c -1.133,0.404 -1.806,1.694 -1.514,2.895 l 1.234,6.92 c 0.074,0.343 0.359,0.592 0.688,0.6 0.005,0 0.011,10e-4 0.016,10e-4 0.025,0 0.048,-0.008 0.069,-0.017 0.012,0.016 0.012,0.016 0.026,0.016 h 6.674 v -6.533 l -0.912,0.959 c -0.129,0.154 -0.302,0.23 -0.481,0.23 -0.216,0 -0.44,-0.112 -0.596,-0.334 z"
         fill="#fff"
         fill-rule="evenodd"
         id="path1034" />
      <path
         d="m 591.911,335.402 c 0.933,0 0.933,1.499 0,1.499 h -1.403 c -0.929,0 -0.929,-1.499 0,-1.499 z m 0.409,-6.402 -3.327,5.322 c -0.158,0.226 -0.381,0.331 -0.593,0.331 -0.186,0 -0.363,-0.08 -0.486,-0.227 l -0.913,-0.959 V 340 h 6.779 c 0.333,0 0.621,-0.252 0.689,-0.6 l 1.235,-6.877 c 0.296,-1.244 -0.367,-2.535 -1.531,-2.955 z"
         fill="#fff"
         fill-rule="evenodd"
         id="path1036" />
      <path
         d="m 581.578,328 -0.578,0.577 2.872,4.423 1.128,-1.153 -1.774,-2.739 c -0.605,-0.275 -1.16,-0.649 -1.648,-1.108 z"
         fill="#fff"
         fill-rule="evenodd"
         id="path1038" />
      <path
         d="m 585.002,330 1.002,1 0.994,-1 h -0.02 c -0.317,0.017 -0.663,0.034 -0.974,0.034 -0.319,0 -0.665,-0.017 -0.976,-0.034 z"
         fill="#fff"
         fill-rule="evenodd"
         id="path1040" />
    </g>
  </g>
</svg>
