<?xml version="1.0" encoding="UTF-8" standalone="no"?>
<!-- Created with Inkscape (http://www.inkscape.org/) -->

<svg
   width="100mm"
   height="98.523476mm"
   viewBox="0 0 100 98.523476"
   version="1.1"
   id="svg5"
   inkscape:version="1.1.1 (3bf5ae0d25, 2021-09-20)"
   sodipodi:docname="warning.svg"
   xmlns:inkscape="http://www.inkscape.org/namespaces/inkscape"
   xmlns:sodipodi="http://sodipodi.sourceforge.net/DTD/sodipodi-0.dtd"
   xmlns="http://www.w3.org/2000/svg"
   xmlns:svg="http://www.w3.org/2000/svg">
  <sodipodi:namedview
     id="namedview7"
     pagecolor="#ffffff"
     bordercolor="#666666"
     borderopacity="1.0"
     inkscape:pageshadow="2"
     inkscape:pageopacity="0.0"
     inkscape:pagecheckerboard="0"
     inkscape:document-units="mm"
     showgrid="false"
     fit-margin-top="0"
     fit-margin-left="0"
     fit-margin-right="0"
     fit-margin-bottom="0"
     inkscape:zoom="0.72337262"
     inkscape:cx="396.75265"
     inkscape:cy="230.17183"
     inkscape:window-width="1920"
     inkscape:window-height="1001"
     inkscape:window-x="-9"
     inkscape:window-y="-9"
     inkscape:window-maximized="1"
     inkscape:current-layer="layer1" />
  <defs
     id="defs2" />
  <g
     inkscape:label="Capa 1"
     inkscape:groupmode="layer"
     id="layer1"
     transform="translate(3.4822977e-5,4.71982e-5)">
    <g
       transform="matrix(4.2840018,0,0,4.2840018,-3100.8817,-1353.7489)"
       id="g830">
      <path
         d="m 735.501,322.001 c -0.277,0 -0.501,0.314 -0.501,0.701 v 5.6 c 0,0.385 0.224,0.698 0.501,0.698 0.275,0 0.499,-0.313 0.499,-0.698 v -5.6 c 0,-0.387 -0.224,-0.701 -0.499,-0.701 z"
         fill="#fff"
         fill-rule="evenodd"
         id="path824" />
      <path
         d="m 735.5,320.158 c 1.131,0 2.051,0.973 2.051,2.176 v 5.797 c 0,1.198 -0.92,2.172 -2.051,2.172 -1.134,0 -2.053,-0.974 -2.053,-2.172 v -5.797 c 0,-1.203 0.919,-2.176 2.053,-2.176 z m 0,11.595 c 0.264,0 0.531,0.054 0.785,0.166 0.765,0.336 1.266,1.128 1.266,2.01 0,1.197 -0.92,2.172 -2.051,2.172 -0.831,0 -1.578,-0.53 -1.896,-1.342 -0.317,-0.811 -0.143,-1.746 0.445,-2.369 0.392,-0.416 0.918,-0.637 1.451,-0.637 z m -10e-4,-15.752 c -1.171,0 -2.342,0.624 -2.993,1.873 l -8.246,15.75 c -1.259,2.415 0.386,5.375 2.99,5.375 h 16.497 c 2.605,0 4.253,-2.956 2.991,-5.375 l -8.246,-15.75 c -0.652,-1.249 -1.822,-1.873 -2.993,-1.873 z"
         fill="#fff"
         fill-rule="evenodd"
         id="path826" />
      <path
         d="m 735.501,333.002 c -0.277,0 -0.501,0.446 -0.501,1.002 0,0.548 0.224,0.996 0.501,0.996 0.275,0 0.499,-0.448 0.499,-0.996 0,-0.556 -0.224,-1.002 -0.499,-1.002 z"
         fill="#fff"
         fill-rule="evenodd"
         id="path828" />
    </g>
  </g>
</svg>
